<?xml version="1.0" encoding="utf-8"?>
<svg xmlns="http://www.w3.org/2000/svg" xmlns:xlink="http://www.w3.org/1999/xlink" width="600" height="400" viewBox="0 0 2400 1600">
<defs>
  <clipPath id="clip270">
    <rect x="0" y="0" width="2400" height="1600"/>
  </clipPath>
</defs>
<path clip-path="url(#clip270)" d="M0 1600 L2400 1600 L2400 8.88178e-14 L0 8.88178e-14  Z" fill="#ffffff" fill-rule="evenodd" fill-opacity="1"/>
<defs>
  <clipPath id="clip271">
    <rect x="480" y="0" width="1681" height="1600"/>
  </clipPath>
</defs>
<path clip-path="url(#clip270)" d="M249.542 1423.18 L2352.76 1423.18 L2352.76 123.472 L249.542 123.472  Z" fill="#ffffff" fill-rule="evenodd" fill-opacity="1"/>
<defs>
  <clipPath id="clip272">
    <rect x="249" y="123" width="2104" height="1301"/>
  </clipPath>
</defs>
<polyline clip-path="url(#clip272)" style="stroke:#000000; stroke-linecap:round; stroke-linejoin:round; stroke-width:2; stroke-opacity:0.1; fill:none" points="309.067,1423.18 309.067,123.472 "/>
<polyline clip-path="url(#clip272)" style="stroke:#000000; stroke-linecap:round; stroke-linejoin:round; stroke-width:2; stroke-opacity:0.1; fill:none" points="1301.15,1423.18 1301.15,123.472 "/>
<polyline clip-path="url(#clip272)" style="stroke:#000000; stroke-linecap:round; stroke-linejoin:round; stroke-width:2; stroke-opacity:0.1; fill:none" points="2293.23,1423.18 2293.23,123.472 "/>
<polyline clip-path="url(#clip272)" style="stroke:#000000; stroke-linecap:round; stroke-linejoin:round; stroke-width:2; stroke-opacity:0.1; fill:none" points="249.542,1163.27 2352.76,1163.27 "/>
<polyline clip-path="url(#clip272)" style="stroke:#000000; stroke-linecap:round; stroke-linejoin:round; stroke-width:2; stroke-opacity:0.1; fill:none" points="249.542,889.803 2352.76,889.803 "/>
<polyline clip-path="url(#clip272)" style="stroke:#000000; stroke-linecap:round; stroke-linejoin:round; stroke-width:2; stroke-opacity:0.1; fill:none" points="249.542,616.339 2352.76,616.339 "/>
<polyline clip-path="url(#clip272)" style="stroke:#000000; stroke-linecap:round; stroke-linejoin:round; stroke-width:2; stroke-opacity:0.1; fill:none" points="249.542,342.876 2352.76,342.876 "/>
<polyline clip-path="url(#clip270)" style="stroke:#000000; stroke-linecap:round; stroke-linejoin:round; stroke-width:4; stroke-opacity:1; fill:none" points="249.542,1423.18 2352.76,1423.18 "/>
<polyline clip-path="url(#clip270)" style="stroke:#000000; stroke-linecap:round; stroke-linejoin:round; stroke-width:4; stroke-opacity:1; fill:none" points="309.067,1423.18 309.067,1404.28 "/>
<polyline clip-path="url(#clip270)" style="stroke:#000000; stroke-linecap:round; stroke-linejoin:round; stroke-width:4; stroke-opacity:1; fill:none" points="1301.15,1423.18 1301.15,1404.28 "/>
<polyline clip-path="url(#clip270)" style="stroke:#000000; stroke-linecap:round; stroke-linejoin:round; stroke-width:4; stroke-opacity:1; fill:none" points="2293.23,1423.18 2293.23,1404.28 "/>
<path clip-path="url(#clip270)" d="M75.7233 1449.61 Q72.6215 1454.93 71.1168 1460.14 Q69.6122 1465.35 69.6122 1470.7 Q69.6122 1476.04 71.1168 1481.3 Q72.6446 1486.53 75.7233 1491.83 L72.0196 1491.83 Q68.5474 1486.39 66.8113 1481.14 Q65.0984 1475.88 65.0984 1470.7 Q65.0984 1465.53 66.8113 1460.3 Q68.5243 1455.07 72.0196 1449.61 L75.7233 1449.61 Z" fill="#000000" fill-rule="nonzero" fill-opacity="1" /><path clip-path="url(#clip270)" d="M83.9871 1459.65 L88.2464 1459.65 L88.2464 1485.58 L83.9871 1485.58 L83.9871 1459.65 M83.9871 1449.56 L88.2464 1449.56 L88.2464 1454.96 L83.9871 1454.96 L83.9871 1449.56 Z" fill="#000000" fill-rule="nonzero" fill-opacity="1" /><path clip-path="url(#clip270)" d="M96.4871 1449.61 L100.191 1449.61 Q103.663 1455.07 105.376 1460.3 Q107.112 1465.53 107.112 1470.7 Q107.112 1475.88 105.376 1481.14 Q103.663 1486.39 100.191 1491.83 L96.4871 1491.83 Q99.5658 1486.53 101.07 1481.3 Q102.598 1476.04 102.598 1470.7 Q102.598 1465.35 101.07 1460.14 Q99.5658 1454.93 96.4871 1449.61 Z" fill="#000000" fill-rule="nonzero" fill-opacity="1" /><path clip-path="url(#clip270)" d="M130.908 1451.02 L135.584 1451.02 L135.584 1481.64 L152.413 1481.64 L152.413 1485.58 L130.908 1485.58 L130.908 1451.02 Z" fill="#000000" fill-rule="nonzero" fill-opacity="1" /><path clip-path="url(#clip270)" d="M166.348 1462.64 Q162.922 1462.64 160.931 1465.33 Q158.94 1467.99 158.94 1472.64 Q158.94 1477.29 160.908 1479.98 Q162.899 1482.64 166.348 1482.64 Q169.751 1482.64 171.741 1479.95 Q173.732 1477.27 173.732 1472.64 Q173.732 1468.03 171.741 1465.35 Q169.751 1462.64 166.348 1462.64 M166.348 1459.03 Q171.903 1459.03 175.075 1462.64 Q178.246 1466.25 178.246 1472.64 Q178.246 1479.01 175.075 1482.64 Q171.903 1486.25 166.348 1486.25 Q160.769 1486.25 157.598 1482.64 Q154.45 1479.01 154.45 1472.64 Q154.45 1466.25 157.598 1462.64 Q160.769 1459.03 166.348 1459.03 Z" fill="#000000" fill-rule="nonzero" fill-opacity="1" /><path clip-path="url(#clip270)" d="M203.963 1460.65 L203.963 1464.63 Q202.158 1463.64 200.329 1463.15 Q198.524 1462.64 196.672 1462.64 Q192.528 1462.64 190.237 1465.28 Q187.945 1467.89 187.945 1472.64 Q187.945 1477.39 190.237 1480.02 Q192.528 1482.64 196.672 1482.64 Q198.524 1482.64 200.329 1482.15 Q202.158 1481.64 203.963 1480.65 L203.963 1484.58 Q202.181 1485.42 200.26 1485.83 Q198.362 1486.25 196.209 1486.25 Q190.352 1486.25 186.903 1482.57 Q183.454 1478.89 183.454 1472.64 Q183.454 1466.3 186.926 1462.66 Q190.422 1459.03 196.487 1459.03 Q198.454 1459.03 200.329 1459.45 Q202.204 1459.84 203.963 1460.65 Z" fill="#000000" fill-rule="nonzero" fill-opacity="1" /><path clip-path="url(#clip270)" d="M223.153 1472.55 Q217.991 1472.55 216 1473.73 Q214.01 1474.91 214.01 1477.76 Q214.01 1480.02 215.491 1481.37 Q216.996 1482.69 219.565 1482.69 Q223.107 1482.69 225.236 1480.19 Q227.389 1477.66 227.389 1473.5 L227.389 1472.55 L223.153 1472.55 M231.648 1470.79 L231.648 1485.58 L227.389 1485.58 L227.389 1481.64 Q225.931 1484.01 223.755 1485.14 Q221.579 1486.25 218.431 1486.25 Q214.449 1486.25 212.088 1484.03 Q209.75 1481.78 209.75 1478.03 Q209.75 1473.66 212.667 1471.44 Q215.607 1469.21 221.417 1469.21 L227.389 1469.21 L227.389 1468.8 Q227.389 1465.86 225.445 1464.26 Q223.523 1462.64 220.028 1462.64 Q217.806 1462.64 215.699 1463.17 Q213.593 1463.7 211.648 1464.77 L211.648 1460.83 Q213.986 1459.93 216.186 1459.49 Q218.385 1459.03 220.468 1459.03 Q226.093 1459.03 228.871 1461.95 Q231.648 1464.86 231.648 1470.79 Z" fill="#000000" fill-rule="nonzero" fill-opacity="1" /><path clip-path="url(#clip270)" d="M240.421 1449.56 L244.681 1449.56 L244.681 1485.58 L240.421 1485.58 L240.421 1449.56 Z" fill="#000000" fill-rule="nonzero" fill-opacity="1" /><path clip-path="url(#clip270)" d="M273.523 1454.86 L273.523 1481.74 L279.171 1481.74 Q286.324 1481.74 289.634 1478.5 Q292.968 1475.26 292.968 1468.27 Q292.968 1461.32 289.634 1458.1 Q286.324 1454.86 279.171 1454.86 L273.523 1454.86 M268.847 1451.02 L278.454 1451.02 Q288.5 1451.02 293.199 1455.21 Q297.898 1459.38 297.898 1468.27 Q297.898 1477.2 293.176 1481.39 Q288.454 1485.58 278.454 1485.58 L268.847 1485.58 L268.847 1451.02 Z" fill="#000000" fill-rule="nonzero" fill-opacity="1" /><path clip-path="url(#clip270)" d="M327.342 1471.55 L327.342 1473.64 L307.759 1473.64 Q308.037 1478.03 310.398 1480.35 Q312.782 1482.64 317.018 1482.64 Q319.472 1482.64 321.764 1482.04 Q324.078 1481.44 326.347 1480.23 L326.347 1484.26 Q324.055 1485.23 321.648 1485.74 Q319.241 1486.25 316.764 1486.25 Q310.56 1486.25 306.926 1482.64 Q303.315 1479.03 303.315 1472.87 Q303.315 1466.51 306.741 1462.78 Q310.19 1459.03 316.023 1459.03 Q321.254 1459.03 324.287 1462.41 Q327.342 1465.77 327.342 1471.55 M323.083 1470.3 Q323.037 1466.81 321.116 1464.72 Q319.217 1462.64 316.069 1462.64 Q312.504 1462.64 310.352 1464.65 Q308.222 1466.67 307.898 1470.33 L323.083 1470.3 Z" fill="#000000" fill-rule="nonzero" fill-opacity="1" /><path clip-path="url(#clip270)" d="M338.453 1481.69 L338.453 1495.44 L334.171 1495.44 L334.171 1459.65 L338.453 1459.65 L338.453 1463.59 Q339.796 1461.27 341.833 1460.16 Q343.893 1459.03 346.74 1459.03 Q351.463 1459.03 354.402 1462.78 Q357.365 1466.53 357.365 1472.64 Q357.365 1478.75 354.402 1482.5 Q351.463 1486.25 346.74 1486.25 Q343.893 1486.25 341.833 1485.14 Q339.796 1484.01 338.453 1481.69 M352.944 1472.64 Q352.944 1467.94 351 1465.28 Q349.078 1462.59 345.699 1462.59 Q342.319 1462.59 340.375 1465.28 Q338.453 1467.94 338.453 1472.64 Q338.453 1477.34 340.375 1480.02 Q342.319 1482.69 345.699 1482.69 Q349.078 1482.69 351 1480.02 Q352.944 1477.34 352.944 1472.64 Z" fill="#000000" fill-rule="nonzero" fill-opacity="1" /><path clip-path="url(#clip270)" d="M364.425 1449.56 L368.685 1449.56 L368.685 1485.58 L364.425 1485.58 L364.425 1449.56 Z" fill="#000000" fill-rule="nonzero" fill-opacity="1" /><path clip-path="url(#clip270)" d="M387.643 1462.64 Q384.217 1462.64 382.226 1465.33 Q380.236 1467.99 380.236 1472.64 Q380.236 1477.29 382.203 1479.98 Q384.194 1482.64 387.643 1482.64 Q391.046 1482.64 393.036 1479.95 Q395.027 1477.27 395.027 1472.64 Q395.027 1468.03 393.036 1465.35 Q391.046 1462.64 387.643 1462.64 M387.643 1459.03 Q393.198 1459.03 396.37 1462.64 Q399.541 1466.25 399.541 1472.64 Q399.541 1479.01 396.37 1482.64 Q393.198 1486.25 387.643 1486.25 Q382.064 1486.25 378.893 1482.64 Q375.745 1479.01 375.745 1472.64 Q375.745 1466.25 378.893 1462.64 Q382.064 1459.03 387.643 1459.03 Z" fill="#000000" fill-rule="nonzero" fill-opacity="1" /><path clip-path="url(#clip270)" d="M417.388 1487.99 Q415.583 1492.62 413.87 1494.03 Q412.157 1495.44 409.286 1495.44 L405.884 1495.44 L405.884 1491.88 L408.384 1491.88 Q410.143 1491.88 411.115 1491.04 Q412.087 1490.21 413.268 1487.11 L414.032 1485.16 L403.546 1459.65 L408.059 1459.65 L416.161 1479.93 L424.263 1459.65 L428.777 1459.65 L417.388 1487.99 Z" fill="#000000" fill-rule="nonzero" fill-opacity="1" /><path clip-path="url(#clip270)" d="M454.842 1464.63 Q456.439 1461.76 458.661 1460.39 Q460.883 1459.03 463.893 1459.03 Q467.943 1459.03 470.142 1461.88 Q472.342 1464.7 472.342 1469.93 L472.342 1485.58 L468.059 1485.58 L468.059 1470.07 Q468.059 1466.34 466.74 1464.54 Q465.42 1462.73 462.712 1462.73 Q459.402 1462.73 457.481 1464.93 Q455.559 1467.13 455.559 1470.93 L455.559 1485.58 L451.277 1485.58 L451.277 1470.07 Q451.277 1466.32 449.957 1464.54 Q448.638 1462.73 445.883 1462.73 Q442.619 1462.73 440.698 1464.95 Q438.777 1467.15 438.777 1470.93 L438.777 1485.58 L434.495 1485.58 L434.495 1459.65 L438.777 1459.65 L438.777 1463.68 Q440.235 1461.3 442.272 1460.16 Q444.309 1459.03 447.11 1459.03 Q449.934 1459.03 451.902 1460.46 Q453.893 1461.9 454.842 1464.63 Z" fill="#000000" fill-rule="nonzero" fill-opacity="1" /><path clip-path="url(#clip270)" d="M503.013 1471.55 L503.013 1473.64 L483.429 1473.64 Q483.707 1478.03 486.068 1480.35 Q488.453 1482.64 492.689 1482.64 Q495.142 1482.64 497.434 1482.04 Q499.749 1481.44 502.017 1480.23 L502.017 1484.26 Q499.726 1485.23 497.318 1485.74 Q494.911 1486.25 492.434 1486.25 Q486.23 1486.25 482.596 1482.64 Q478.985 1479.03 478.985 1472.87 Q478.985 1466.51 482.411 1462.78 Q485.86 1459.03 491.693 1459.03 Q496.925 1459.03 499.957 1462.41 Q503.013 1465.77 503.013 1471.55 M498.753 1470.3 Q498.707 1466.81 496.786 1464.72 Q494.888 1462.64 491.74 1462.64 Q488.175 1462.64 486.022 1464.65 Q483.892 1466.67 483.568 1470.33 L498.753 1470.3 Z" fill="#000000" fill-rule="nonzero" fill-opacity="1" /><path clip-path="url(#clip270)" d="M531.554 1469.93 L531.554 1485.58 L527.295 1485.58 L527.295 1470.07 Q527.295 1466.39 525.86 1464.56 Q524.425 1462.73 521.554 1462.73 Q518.105 1462.73 516.114 1464.93 Q514.124 1467.13 514.124 1470.93 L514.124 1485.58 L509.841 1485.58 L509.841 1459.65 L514.124 1459.65 L514.124 1463.68 Q515.651 1461.34 517.712 1460.19 Q519.795 1459.03 522.503 1459.03 Q526.971 1459.03 529.263 1461.81 Q531.554 1464.56 531.554 1469.93 Z" fill="#000000" fill-rule="nonzero" fill-opacity="1" /><path clip-path="url(#clip270)" d="M544.262 1452.29 L544.262 1459.65 L553.036 1459.65 L553.036 1462.96 L544.262 1462.96 L544.262 1477.04 Q544.262 1480.21 545.119 1481.11 Q545.999 1482.02 548.661 1482.02 L553.036 1482.02 L553.036 1485.58 L548.661 1485.58 Q543.73 1485.58 541.855 1483.75 Q539.98 1481.9 539.98 1477.04 L539.98 1462.96 L536.855 1462.96 L536.855 1459.65 L539.98 1459.65 L539.98 1452.29 L544.262 1452.29 Z" fill="#000000" fill-rule="nonzero" fill-opacity="1" /><path clip-path="url(#clip270)" d="M1010.55 1449.61 Q1007.45 1454.93 1005.94 1460.14 Q1004.44 1465.35 1004.44 1470.7 Q1004.44 1476.04 1005.94 1481.3 Q1007.47 1486.53 1010.55 1491.83 L1006.84 1491.83 Q1003.37 1486.39 1001.64 1481.14 Q999.924 1475.88 999.924 1470.7 Q999.924 1465.53 1001.64 1460.3 Q1003.35 1455.07 1006.84 1449.61 L1010.55 1449.61 Z" fill="#000000" fill-rule="nonzero" fill-opacity="1" /><path clip-path="url(#clip270)" d="M1018.81 1459.65 L1023.07 1459.65 L1023.07 1485.58 L1018.81 1485.58 L1018.81 1459.65 M1018.81 1449.56 L1023.07 1449.56 L1023.07 1454.96 L1018.81 1454.96 L1018.81 1449.56 Z" fill="#000000" fill-rule="nonzero" fill-opacity="1" /><path clip-path="url(#clip270)" d="M1031.98 1459.65 L1036.24 1459.65 L1036.24 1485.58 L1031.98 1485.58 L1031.98 1459.65 M1031.98 1449.56 L1036.24 1449.56 L1036.24 1454.96 L1031.98 1454.96 L1031.98 1449.56 Z" fill="#000000" fill-rule="nonzero" fill-opacity="1" /><path clip-path="url(#clip270)" d="M1045.15 1459.65 L1049.41 1459.65 L1049.41 1485.58 L1045.15 1485.58 L1045.15 1459.65 M1045.15 1449.56 L1049.41 1449.56 L1049.41 1454.96 L1045.15 1454.96 L1045.15 1449.56 Z" fill="#000000" fill-rule="nonzero" fill-opacity="1" /><path clip-path="url(#clip270)" d="M1057.65 1449.61 L1061.36 1449.61 Q1064.83 1455.07 1066.54 1460.3 Q1068.28 1465.53 1068.28 1470.7 Q1068.28 1475.88 1066.54 1481.14 Q1064.83 1486.39 1061.36 1491.83 L1057.65 1491.83 Q1060.73 1486.53 1062.24 1481.3 Q1063.77 1476.04 1063.77 1470.7 Q1063.77 1465.35 1062.24 1460.14 Q1060.73 1454.93 1057.65 1449.61 Z" fill="#000000" fill-rule="nonzero" fill-opacity="1" /><path clip-path="url(#clip270)" d="M1089 1451.02 L1093.72 1451.02 L1100.99 1480.23 L1108.23 1451.02 L1113.49 1451.02 L1120.76 1480.23 L1128 1451.02 L1132.75 1451.02 L1124.07 1485.58 L1118.19 1485.58 L1110.9 1455.58 L1103.53 1485.58 L1097.65 1485.58 L1089 1451.02 Z" fill="#000000" fill-rule="nonzero" fill-opacity="1" /><path clip-path="url(#clip270)" d="M1158.16 1471.55 L1158.16 1473.64 L1138.58 1473.64 Q1138.86 1478.03 1141.22 1480.35 Q1143.6 1482.64 1147.84 1482.64 Q1150.29 1482.64 1152.58 1482.04 Q1154.9 1481.44 1157.17 1480.23 L1157.17 1484.26 Q1154.88 1485.23 1152.47 1485.74 Q1150.06 1486.25 1147.58 1486.25 Q1141.38 1486.25 1137.75 1482.64 Q1134.14 1479.03 1134.14 1472.87 Q1134.14 1466.51 1137.56 1462.78 Q1141.01 1459.03 1146.84 1459.03 Q1152.08 1459.03 1155.11 1462.41 Q1158.16 1465.77 1158.16 1471.55 M1153.9 1470.3 Q1153.86 1466.81 1151.94 1464.72 Q1150.04 1462.64 1146.89 1462.64 Q1143.33 1462.64 1141.17 1464.65 Q1139.04 1466.67 1138.72 1470.33 L1153.9 1470.3 Z" fill="#000000" fill-rule="nonzero" fill-opacity="1" /><path clip-path="url(#clip270)" d="M1183.77 1472.64 Q1183.77 1467.94 1181.82 1465.28 Q1179.9 1462.59 1176.52 1462.59 Q1173.14 1462.59 1171.2 1465.28 Q1169.27 1467.94 1169.27 1472.64 Q1169.27 1477.34 1171.2 1480.02 Q1173.14 1482.69 1176.52 1482.69 Q1179.9 1482.69 1181.82 1480.02 Q1183.77 1477.34 1183.77 1472.64 M1169.27 1463.59 Q1170.62 1461.27 1172.65 1460.16 Q1174.71 1459.03 1177.56 1459.03 Q1182.28 1459.03 1185.22 1462.78 Q1188.19 1466.53 1188.19 1472.64 Q1188.19 1478.75 1185.22 1482.5 Q1182.28 1486.25 1177.56 1486.25 Q1174.71 1486.25 1172.65 1485.14 Q1170.62 1484.01 1169.27 1481.69 L1169.27 1485.58 L1164.99 1485.58 L1164.99 1449.56 L1169.27 1449.56 L1169.27 1463.59 Z" fill="#000000" fill-rule="nonzero" fill-opacity="1" /><path clip-path="url(#clip270)" d="M1222.05 1455.63 L1215.71 1472.83 L1228.42 1472.83 L1222.05 1455.63 M1219.41 1451.02 L1224.71 1451.02 L1237.89 1485.58 L1233.02 1485.58 L1229.88 1476.71 L1214.3 1476.71 L1211.15 1485.58 L1206.22 1485.58 L1219.41 1451.02 Z" fill="#000000" fill-rule="nonzero" fill-opacity="1" /><path clip-path="url(#clip270)" d="M1246.87 1481.69 L1246.87 1495.44 L1242.58 1495.44 L1242.58 1459.65 L1246.87 1459.65 L1246.87 1463.59 Q1248.21 1461.27 1250.25 1460.16 Q1252.31 1459.03 1255.15 1459.03 Q1259.88 1459.03 1262.82 1462.78 Q1265.78 1466.53 1265.78 1472.64 Q1265.78 1478.75 1262.82 1482.5 Q1259.88 1486.25 1255.15 1486.25 Q1252.31 1486.25 1250.25 1485.14 Q1248.21 1484.01 1246.87 1481.69 M1261.36 1472.64 Q1261.36 1467.94 1259.41 1465.28 Q1257.49 1462.59 1254.11 1462.59 Q1250.73 1462.59 1248.79 1465.28 Q1246.87 1467.94 1246.87 1472.64 Q1246.87 1477.34 1248.79 1480.02 Q1250.73 1482.69 1254.11 1482.69 Q1257.49 1482.69 1259.41 1480.02 Q1261.36 1477.34 1261.36 1472.64 Z" fill="#000000" fill-rule="nonzero" fill-opacity="1" /><path clip-path="url(#clip270)" d="M1276.96 1481.69 L1276.96 1495.44 L1272.68 1495.44 L1272.68 1459.65 L1276.96 1459.65 L1276.96 1463.59 Q1278.3 1461.27 1280.34 1460.16 Q1282.4 1459.03 1285.25 1459.03 Q1289.97 1459.03 1292.91 1462.78 Q1295.87 1466.53 1295.87 1472.64 Q1295.87 1478.75 1292.91 1482.5 Q1289.97 1486.25 1285.25 1486.25 Q1282.4 1486.25 1280.34 1485.14 Q1278.3 1484.01 1276.96 1481.69 M1291.45 1472.64 Q1291.45 1467.94 1289.51 1465.28 Q1287.58 1462.59 1284.2 1462.59 Q1280.83 1462.59 1278.88 1465.28 Q1276.96 1467.94 1276.96 1472.64 Q1276.96 1477.34 1278.88 1480.02 Q1280.83 1482.69 1284.2 1482.69 Q1287.58 1482.69 1289.51 1480.02 Q1291.45 1477.34 1291.45 1472.64 Z" fill="#000000" fill-rule="nonzero" fill-opacity="1" /><path clip-path="url(#clip270)" d="M1322.86 1454.86 L1322.86 1481.74 L1328.51 1481.74 Q1335.66 1481.74 1338.97 1478.5 Q1342.31 1475.26 1342.31 1468.27 Q1342.31 1461.32 1338.97 1458.1 Q1335.66 1454.86 1328.51 1454.86 L1322.86 1454.86 M1318.19 1451.02 L1327.79 1451.02 Q1337.84 1451.02 1342.54 1455.21 Q1347.24 1459.38 1347.24 1468.27 Q1347.24 1477.2 1342.51 1481.39 Q1337.79 1485.58 1327.79 1485.58 L1318.19 1485.58 L1318.19 1451.02 Z" fill="#000000" fill-rule="nonzero" fill-opacity="1" /><path clip-path="url(#clip270)" d="M1376.68 1471.55 L1376.68 1473.64 L1357.1 1473.64 Q1357.38 1478.03 1359.74 1480.35 Q1362.12 1482.64 1366.36 1482.64 Q1368.81 1482.64 1371.1 1482.04 Q1373.42 1481.44 1375.69 1480.23 L1375.69 1484.26 Q1373.39 1485.23 1370.99 1485.74 Q1368.58 1486.25 1366.1 1486.25 Q1359.9 1486.25 1356.26 1482.64 Q1352.65 1479.03 1352.65 1472.87 Q1352.65 1466.51 1356.08 1462.78 Q1359.53 1459.03 1365.36 1459.03 Q1370.59 1459.03 1373.63 1462.41 Q1376.68 1465.77 1376.68 1471.55 M1372.42 1470.3 Q1372.38 1466.81 1370.45 1464.72 Q1368.56 1462.64 1365.41 1462.64 Q1361.84 1462.64 1359.69 1464.65 Q1357.56 1466.67 1357.24 1470.33 L1372.42 1470.3 Z" fill="#000000" fill-rule="nonzero" fill-opacity="1" /><path clip-path="url(#clip270)" d="M1387.79 1481.69 L1387.79 1495.44 L1383.51 1495.44 L1383.51 1459.65 L1387.79 1459.65 L1387.79 1463.59 Q1389.13 1461.27 1391.17 1460.16 Q1393.23 1459.03 1396.08 1459.03 Q1400.8 1459.03 1403.74 1462.78 Q1406.7 1466.53 1406.7 1472.64 Q1406.7 1478.75 1403.74 1482.5 Q1400.8 1486.25 1396.08 1486.25 Q1393.23 1486.25 1391.17 1485.14 Q1389.13 1484.01 1387.79 1481.69 M1402.28 1472.64 Q1402.28 1467.94 1400.34 1465.28 Q1398.42 1462.59 1395.04 1462.59 Q1391.66 1462.59 1389.71 1465.28 Q1387.79 1467.94 1387.79 1472.64 Q1387.79 1477.34 1389.71 1480.02 Q1391.66 1482.69 1395.04 1482.69 Q1398.42 1482.69 1400.34 1480.02 Q1402.28 1477.34 1402.28 1472.64 Z" fill="#000000" fill-rule="nonzero" fill-opacity="1" /><path clip-path="url(#clip270)" d="M1413.76 1449.56 L1418.02 1449.56 L1418.02 1485.58 L1413.76 1485.58 L1413.76 1449.56 Z" fill="#000000" fill-rule="nonzero" fill-opacity="1" /><path clip-path="url(#clip270)" d="M1436.98 1462.64 Q1433.56 1462.64 1431.56 1465.33 Q1429.57 1467.99 1429.57 1472.64 Q1429.57 1477.29 1431.54 1479.98 Q1433.53 1482.64 1436.98 1482.64 Q1440.38 1482.64 1442.38 1479.95 Q1444.37 1477.27 1444.37 1472.64 Q1444.37 1468.03 1442.38 1465.35 Q1440.38 1462.64 1436.98 1462.64 M1436.98 1459.03 Q1442.54 1459.03 1445.71 1462.64 Q1448.88 1466.25 1448.88 1472.64 Q1448.88 1479.01 1445.71 1482.64 Q1442.54 1486.25 1436.98 1486.25 Q1431.4 1486.25 1428.23 1482.64 Q1425.08 1479.01 1425.08 1472.64 Q1425.08 1466.25 1428.23 1462.64 Q1431.4 1459.03 1436.98 1459.03 Z" fill="#000000" fill-rule="nonzero" fill-opacity="1" /><path clip-path="url(#clip270)" d="M1466.73 1487.99 Q1464.92 1492.62 1463.21 1494.03 Q1461.5 1495.44 1458.62 1495.44 L1455.22 1495.44 L1455.22 1491.88 L1457.72 1491.88 Q1459.48 1491.88 1460.45 1491.04 Q1461.43 1490.21 1462.61 1487.11 L1463.37 1485.16 L1452.88 1459.65 L1457.4 1459.65 L1465.5 1479.93 L1473.6 1459.65 L1478.12 1459.65 L1466.73 1487.99 Z" fill="#000000" fill-rule="nonzero" fill-opacity="1" /><path clip-path="url(#clip270)" d="M1504.18 1464.63 Q1505.78 1461.76 1508 1460.39 Q1510.22 1459.03 1513.23 1459.03 Q1517.28 1459.03 1519.48 1461.88 Q1521.68 1464.7 1521.68 1469.93 L1521.68 1485.58 L1517.4 1485.58 L1517.4 1470.07 Q1517.4 1466.34 1516.08 1464.54 Q1514.76 1462.73 1512.05 1462.73 Q1508.74 1462.73 1506.82 1464.93 Q1504.9 1467.13 1504.9 1470.93 L1504.9 1485.58 L1500.62 1485.58 L1500.62 1470.07 Q1500.62 1466.32 1499.3 1464.54 Q1497.98 1462.73 1495.22 1462.73 Q1491.96 1462.73 1490.04 1464.95 Q1488.12 1467.15 1488.12 1470.93 L1488.12 1485.58 L1483.83 1485.58 L1483.83 1459.65 L1488.12 1459.65 L1488.12 1463.68 Q1489.57 1461.3 1491.61 1460.16 Q1493.65 1459.03 1496.45 1459.03 Q1499.27 1459.03 1501.24 1460.46 Q1503.23 1461.9 1504.18 1464.63 Z" fill="#000000" fill-rule="nonzero" fill-opacity="1" /><path clip-path="url(#clip270)" d="M1552.35 1471.55 L1552.35 1473.64 L1532.77 1473.64 Q1533.05 1478.03 1535.41 1480.35 Q1537.79 1482.64 1542.03 1482.64 Q1544.48 1482.64 1546.77 1482.04 Q1549.09 1481.44 1551.36 1480.23 L1551.36 1484.26 Q1549.06 1485.23 1546.66 1485.74 Q1544.25 1486.25 1541.77 1486.25 Q1535.57 1486.25 1531.93 1482.64 Q1528.32 1479.03 1528.32 1472.87 Q1528.32 1466.51 1531.75 1462.78 Q1535.2 1459.03 1541.03 1459.03 Q1546.26 1459.03 1549.3 1462.41 Q1552.35 1465.77 1552.35 1471.55 M1548.09 1470.3 Q1548.05 1466.81 1546.12 1464.72 Q1544.23 1462.64 1541.08 1462.64 Q1537.51 1462.64 1535.36 1464.65 Q1533.23 1466.67 1532.91 1470.33 L1548.09 1470.3 Z" fill="#000000" fill-rule="nonzero" fill-opacity="1" /><path clip-path="url(#clip270)" d="M1580.89 1469.93 L1580.89 1485.58 L1576.63 1485.58 L1576.63 1470.07 Q1576.63 1466.39 1575.2 1464.56 Q1573.76 1462.73 1570.89 1462.73 Q1567.44 1462.73 1565.45 1464.93 Q1563.46 1467.13 1563.46 1470.93 L1563.46 1485.58 L1559.18 1485.58 L1559.18 1459.65 L1563.46 1459.65 L1563.46 1463.68 Q1564.99 1461.34 1567.05 1460.19 Q1569.13 1459.03 1571.84 1459.03 Q1576.31 1459.03 1578.6 1461.81 Q1580.89 1464.56 1580.89 1469.93 Z" fill="#000000" fill-rule="nonzero" fill-opacity="1" /><path clip-path="url(#clip270)" d="M1593.6 1452.29 L1593.6 1459.65 L1602.37 1459.65 L1602.37 1462.96 L1593.6 1462.96 L1593.6 1477.04 Q1593.6 1480.21 1594.46 1481.11 Q1595.34 1482.02 1598 1482.02 L1602.37 1482.02 L1602.37 1485.58 L1598 1485.58 Q1593.07 1485.58 1591.19 1483.75 Q1589.32 1481.9 1589.32 1477.04 L1589.32 1462.96 L1586.19 1462.96 L1586.19 1459.65 L1589.32 1459.65 L1589.32 1452.29 L1593.6 1452.29 Z" fill="#000000" fill-rule="nonzero" fill-opacity="1" /><path clip-path="url(#clip270)" d="M2006.47 1449.61 Q2003.37 1454.93 2001.87 1460.14 Q2000.36 1465.35 2000.36 1470.7 Q2000.36 1476.04 2001.87 1481.3 Q2003.39 1486.53 2006.47 1491.83 L2002.77 1491.83 Q1999.3 1486.39 1997.56 1481.14 Q1995.85 1475.88 1995.85 1470.7 Q1995.85 1465.53 1997.56 1460.3 Q1999.27 1455.07 2002.77 1449.61 L2006.47 1449.61 Z" fill="#000000" fill-rule="nonzero" fill-opacity="1" /><path clip-path="url(#clip270)" d="M2014.74 1459.65 L2019 1459.65 L2019 1485.58 L2014.74 1485.58 L2014.74 1459.65 M2014.74 1449.56 L2019 1449.56 L2019 1454.96 L2014.74 1454.96 L2014.74 1449.56 Z" fill="#000000" fill-rule="nonzero" fill-opacity="1" /><path clip-path="url(#clip270)" d="M2024.85 1459.65 L2029.37 1459.65 L2037.47 1481.41 L2045.57 1459.65 L2050.08 1459.65 L2040.36 1485.58 L2034.57 1485.58 L2024.85 1459.65 Z" fill="#000000" fill-rule="nonzero" fill-opacity="1" /><path clip-path="url(#clip270)" d="M2055.29 1449.61 L2059 1449.61 Q2062.47 1455.07 2064.18 1460.3 Q2065.92 1465.53 2065.92 1470.7 Q2065.92 1475.88 2064.18 1481.14 Q2062.47 1486.39 2059 1491.83 L2055.29 1491.83 Q2058.37 1486.53 2059.88 1481.3 Q2061.4 1476.04 2061.4 1470.7 Q2061.4 1465.35 2059.88 1460.14 Q2058.37 1454.93 2055.29 1449.61 Z" fill="#000000" fill-rule="nonzero" fill-opacity="1" /><path clip-path="url(#clip270)" d="M2089.71 1451.02 L2109.57 1451.02 L2109.57 1454.96 L2094.39 1454.96 L2094.39 1465.14 L2108.09 1465.14 L2108.09 1469.08 L2094.39 1469.08 L2094.39 1485.58 L2089.71 1485.58 L2089.71 1451.02 Z" fill="#000000" fill-rule="nonzero" fill-opacity="1" /><path clip-path="url(#clip270)" d="M2113.76 1475.35 L2113.76 1459.65 L2118.02 1459.65 L2118.02 1475.19 Q2118.02 1478.87 2119.46 1480.72 Q2120.89 1482.55 2123.76 1482.55 Q2127.21 1482.55 2129.2 1480.35 Q2131.22 1478.15 2131.22 1474.35 L2131.22 1459.65 L2135.48 1459.65 L2135.48 1485.58 L2131.22 1485.58 L2131.22 1481.6 Q2129.67 1483.96 2127.61 1485.12 Q2125.57 1486.25 2122.86 1486.25 Q2118.39 1486.25 2116.08 1483.47 Q2113.76 1480.7 2113.76 1475.35 M2124.48 1459.03 L2124.48 1459.03 Z" fill="#000000" fill-rule="nonzero" fill-opacity="1" /><path clip-path="url(#clip270)" d="M2165.8 1469.93 L2165.8 1485.58 L2161.54 1485.58 L2161.54 1470.07 Q2161.54 1466.39 2160.11 1464.56 Q2158.67 1462.73 2155.8 1462.73 Q2152.35 1462.73 2150.36 1464.93 Q2148.37 1467.13 2148.37 1470.93 L2148.37 1485.58 L2144.09 1485.58 L2144.09 1459.65 L2148.37 1459.65 L2148.37 1463.68 Q2149.9 1461.34 2151.96 1460.19 Q2154.04 1459.03 2156.75 1459.03 Q2161.22 1459.03 2163.51 1461.81 Q2165.8 1464.56 2165.8 1469.93 Z" fill="#000000" fill-rule="nonzero" fill-opacity="1" /><path clip-path="url(#clip270)" d="M2192.95 1460.65 L2192.95 1464.63 Q2191.15 1463.64 2189.32 1463.15 Q2187.51 1462.64 2185.66 1462.64 Q2181.52 1462.64 2179.23 1465.28 Q2176.94 1467.89 2176.94 1472.64 Q2176.94 1477.39 2179.23 1480.02 Q2181.52 1482.64 2185.66 1482.64 Q2187.51 1482.64 2189.32 1482.15 Q2191.15 1481.64 2192.95 1480.65 L2192.95 1484.58 Q2191.17 1485.42 2189.25 1485.83 Q2187.35 1486.25 2185.2 1486.25 Q2179.34 1486.25 2175.89 1482.57 Q2172.44 1478.89 2172.44 1472.64 Q2172.44 1466.3 2175.92 1462.66 Q2179.41 1459.03 2185.48 1459.03 Q2187.44 1459.03 2189.32 1459.45 Q2191.19 1459.84 2192.95 1460.65 Z" fill="#000000" fill-rule="nonzero" fill-opacity="1" /><path clip-path="url(#clip270)" d="M2204.57 1452.29 L2204.57 1459.65 L2213.35 1459.65 L2213.35 1462.96 L2204.57 1462.96 L2204.57 1477.04 Q2204.57 1480.21 2205.43 1481.11 Q2206.31 1482.02 2208.97 1482.02 L2213.35 1482.02 L2213.35 1485.58 L2208.97 1485.58 Q2204.04 1485.58 2202.17 1483.75 Q2200.29 1481.9 2200.29 1477.04 L2200.29 1462.96 L2197.17 1462.96 L2197.17 1459.65 L2200.29 1459.65 L2200.29 1452.29 L2204.57 1452.29 Z" fill="#000000" fill-rule="nonzero" fill-opacity="1" /><path clip-path="url(#clip270)" d="M2218.95 1459.65 L2223.21 1459.65 L2223.21 1485.58 L2218.95 1485.58 L2218.95 1459.65 M2218.95 1449.56 L2223.21 1449.56 L2223.21 1454.96 L2218.95 1454.96 L2218.95 1449.56 Z" fill="#000000" fill-rule="nonzero" fill-opacity="1" /><path clip-path="url(#clip270)" d="M2242.17 1462.64 Q2238.74 1462.64 2236.75 1465.33 Q2234.76 1467.99 2234.76 1472.64 Q2234.76 1477.29 2236.73 1479.98 Q2238.72 1482.64 2242.17 1482.64 Q2245.57 1482.64 2247.56 1479.95 Q2249.55 1477.27 2249.55 1472.64 Q2249.55 1468.03 2247.56 1465.35 Q2245.57 1462.64 2242.17 1462.64 M2242.17 1459.03 Q2247.72 1459.03 2250.89 1462.64 Q2254.06 1466.25 2254.06 1472.64 Q2254.06 1479.01 2250.89 1482.64 Q2247.72 1486.25 2242.17 1486.25 Q2236.59 1486.25 2233.42 1482.64 Q2230.27 1479.01 2230.27 1472.64 Q2230.27 1466.25 2233.42 1462.64 Q2236.59 1459.03 2242.17 1459.03 Z" fill="#000000" fill-rule="nonzero" fill-opacity="1" /><path clip-path="url(#clip270)" d="M2282.68 1469.93 L2282.68 1485.58 L2278.42 1485.58 L2278.42 1470.07 Q2278.42 1466.39 2276.98 1464.56 Q2275.55 1462.73 2272.68 1462.73 Q2269.23 1462.73 2267.24 1464.93 Q2265.25 1467.13 2265.25 1470.93 L2265.25 1485.58 L2260.96 1485.58 L2260.96 1459.65 L2265.25 1459.65 L2265.25 1463.68 Q2266.77 1461.34 2268.83 1460.19 Q2270.92 1459.03 2273.62 1459.03 Q2278.09 1459.03 2280.38 1461.81 Q2282.68 1464.56 2282.68 1469.93 Z" fill="#000000" fill-rule="nonzero" fill-opacity="1" /><path clip-path="url(#clip270)" d="M2311.1 1454.86 L2311.1 1481.74 L2316.75 1481.74 Q2323.9 1481.74 2327.21 1478.5 Q2330.55 1475.26 2330.55 1468.27 Q2330.55 1461.32 2327.21 1458.1 Q2323.9 1454.86 2316.75 1454.86 L2311.1 1454.86 M2306.43 1451.02 L2316.03 1451.02 Q2326.08 1451.02 2330.78 1455.21 Q2335.48 1459.38 2335.48 1468.27 Q2335.48 1477.2 2330.75 1481.39 Q2326.03 1485.58 2316.03 1485.58 L2306.43 1485.58 L2306.43 1451.02 Z" fill="#000000" fill-rule="nonzero" fill-opacity="1" /><path clip-path="url(#clip270)" d="M2364.92 1471.55 L2364.92 1473.64 L2345.34 1473.64 Q2345.61 1478.03 2347.98 1480.35 Q2350.36 1482.64 2354.6 1482.64 Q2357.05 1482.64 2359.34 1482.04 Q2361.66 1481.44 2363.93 1480.23 L2363.93 1484.26 Q2361.63 1485.23 2359.23 1485.74 Q2356.82 1486.25 2354.34 1486.25 Q2348.14 1486.25 2344.5 1482.64 Q2340.89 1479.03 2340.89 1472.87 Q2340.89 1466.51 2344.32 1462.78 Q2347.77 1459.03 2353.6 1459.03 Q2358.83 1459.03 2361.86 1462.41 Q2364.92 1465.77 2364.92 1471.55 M2360.66 1470.3 Q2360.61 1466.81 2358.69 1464.72 Q2356.8 1462.64 2353.65 1462.64 Q2350.08 1462.64 2347.93 1464.65 Q2345.8 1466.67 2345.48 1470.33 L2360.66 1470.3 Z" fill="#000000" fill-rule="nonzero" fill-opacity="1" /><path clip-path="url(#clip270)" d="M2376.03 1481.69 L2376.03 1495.44 L2371.75 1495.44 L2371.75 1459.65 L2376.03 1459.65 L2376.03 1463.59 Q2377.37 1461.27 2379.41 1460.16 Q2381.47 1459.03 2384.32 1459.03 Q2389.04 1459.03 2391.98 1462.78 Q2394.94 1466.53 2394.94 1472.64 Q2394.94 1478.75 2391.98 1482.5 Q2389.04 1486.25 2384.32 1486.25 Q2381.47 1486.25 2379.41 1485.14 Q2377.37 1484.01 2376.03 1481.69 M2390.52 1472.64 Q2390.52 1467.94 2388.58 1465.28 Q2386.66 1462.59 2383.28 1462.59 Q2379.9 1462.59 2377.95 1465.28 Q2376.03 1467.94 2376.03 1472.64 Q2376.03 1477.34 2377.95 1480.02 Q2379.9 1482.69 2383.28 1482.69 Q2386.66 1482.69 2388.58 1480.02 Q2390.52 1477.34 2390.52 1472.64 Z" fill="#000000" fill-rule="nonzero" fill-opacity="1" /><path clip-path="url(#clip270)" d="M2402 1449.56 L2406.26 1449.56 L2406.26 1485.58 L2402 1485.58 L2402 1449.56 Z" fill="#000000" fill-rule="nonzero" fill-opacity="1" /><path clip-path="url(#clip270)" d="M2425.22 1462.64 Q2421.8 1462.64 2419.8 1465.33 Q2417.81 1467.99 2417.81 1472.64 Q2417.81 1477.29 2419.78 1479.98 Q2421.77 1482.64 2425.22 1482.64 Q2428.62 1482.64 2430.61 1479.95 Q2432.61 1477.27 2432.61 1472.64 Q2432.61 1468.03 2430.61 1465.35 Q2428.62 1462.64 2425.22 1462.64 M2425.22 1459.03 Q2430.78 1459.03 2433.95 1462.64 Q2437.12 1466.25 2437.12 1472.64 Q2437.12 1479.01 2433.95 1482.64 Q2430.78 1486.25 2425.22 1486.25 Q2419.64 1486.25 2416.47 1482.64 Q2413.32 1479.01 2413.32 1472.64 Q2413.32 1466.25 2416.47 1462.64 Q2419.64 1459.03 2425.22 1459.03 Z" fill="#000000" fill-rule="nonzero" fill-opacity="1" /><path clip-path="url(#clip270)" d="M2454.97 1487.99 Q2453.16 1492.62 2451.45 1494.03 Q2449.73 1495.44 2446.86 1495.44 L2443.46 1495.44 L2443.46 1491.88 L2445.96 1491.88 Q2447.72 1491.88 2448.69 1491.04 Q2449.67 1490.21 2450.85 1487.11 L2451.61 1485.16 L2441.12 1459.65 L2445.64 1459.65 L2453.74 1479.93 L2461.84 1459.65 L2466.36 1459.65 L2454.97 1487.99 Z" fill="#000000" fill-rule="nonzero" fill-opacity="1" /><path clip-path="url(#clip270)" d="M2492.42 1464.63 Q2494.02 1461.76 2496.24 1460.39 Q2498.46 1459.03 2501.47 1459.03 Q2505.52 1459.03 2507.72 1461.88 Q2509.92 1464.7 2509.92 1469.93 L2509.92 1485.58 L2505.64 1485.58 L2505.64 1470.07 Q2505.64 1466.34 2504.32 1464.54 Q2503 1462.73 2500.29 1462.73 Q2496.98 1462.73 2495.06 1464.93 Q2493.14 1467.13 2493.14 1470.93 L2493.14 1485.58 L2488.85 1485.58 L2488.85 1470.07 Q2488.85 1466.32 2487.54 1464.54 Q2486.22 1462.73 2483.46 1462.73 Q2480.2 1462.73 2478.28 1464.95 Q2476.36 1467.15 2476.36 1470.93 L2476.36 1485.58 L2472.07 1485.58 L2472.07 1459.65 L2476.36 1459.65 L2476.36 1463.68 Q2477.81 1461.3 2479.85 1460.16 Q2481.89 1459.03 2484.69 1459.03 Q2487.51 1459.03 2489.48 1460.46 Q2491.47 1461.9 2492.42 1464.63 Z" fill="#000000" fill-rule="nonzero" fill-opacity="1" /><path clip-path="url(#clip270)" d="M2540.59 1471.55 L2540.59 1473.64 L2521.01 1473.64 Q2521.29 1478.03 2523.65 1480.35 Q2526.03 1482.64 2530.27 1482.64 Q2532.72 1482.64 2535.01 1482.04 Q2537.33 1481.44 2539.6 1480.23 L2539.6 1484.26 Q2537.3 1485.23 2534.9 1485.74 Q2532.49 1486.25 2530.01 1486.25 Q2523.81 1486.25 2520.17 1482.64 Q2516.56 1479.03 2516.56 1472.87 Q2516.56 1466.51 2519.99 1462.78 Q2523.44 1459.03 2529.27 1459.03 Q2534.5 1459.03 2537.54 1462.41 Q2540.59 1465.77 2540.59 1471.55 M2536.33 1470.3 Q2536.29 1466.81 2534.36 1464.72 Q2532.47 1462.64 2529.32 1462.64 Q2525.75 1462.64 2523.6 1464.65 Q2521.47 1466.67 2521.15 1470.33 L2536.33 1470.3 Z" fill="#000000" fill-rule="nonzero" fill-opacity="1" /><path clip-path="url(#clip270)" d="M2569.13 1469.93 L2569.13 1485.58 L2564.87 1485.58 L2564.87 1470.07 Q2564.87 1466.39 2563.44 1464.56 Q2562 1462.73 2559.13 1462.73 Q2555.68 1462.73 2553.69 1464.93 Q2551.7 1467.13 2551.7 1470.93 L2551.7 1485.58 L2547.42 1485.58 L2547.42 1459.65 L2551.7 1459.65 L2551.7 1463.68 Q2553.23 1461.34 2555.29 1460.19 Q2557.37 1459.03 2560.08 1459.03 Q2564.55 1459.03 2566.84 1461.81 Q2569.13 1464.56 2569.13 1469.93 Z" fill="#000000" fill-rule="nonzero" fill-opacity="1" /><path clip-path="url(#clip270)" d="M2581.84 1452.29 L2581.84 1459.65 L2590.61 1459.65 L2590.61 1462.96 L2581.84 1462.96 L2581.84 1477.04 Q2581.84 1480.21 2582.7 1481.11 Q2583.58 1482.02 2586.24 1482.02 L2590.61 1482.02 L2590.61 1485.58 L2586.24 1485.58 Q2581.31 1485.58 2579.43 1483.75 Q2577.56 1481.9 2577.56 1477.04 L2577.56 1462.96 L2574.43 1462.96 L2574.43 1459.65 L2577.56 1459.65 L2577.56 1452.29 L2581.84 1452.29 Z" fill="#000000" fill-rule="nonzero" fill-opacity="1" /><path clip-path="url(#clip270)" d="M1027.93 1525.81 L1027.93 1562.76 L1035.7 1562.76 Q1045.53 1562.76 1050.09 1558.3 Q1054.67 1553.85 1054.67 1544.24 Q1054.67 1534.69 1050.09 1530.26 Q1045.53 1525.81 1035.7 1525.81 L1027.93 1525.81 M1021.5 1520.52 L1034.71 1520.52 Q1048.53 1520.52 1054.99 1526.28 Q1061.45 1532.01 1061.45 1544.24 Q1061.45 1556.52 1054.96 1562.28 Q1048.46 1568.04 1034.71 1568.04 L1021.5 1568.04 L1021.5 1520.52 Z" fill="#000000" fill-rule="nonzero" fill-opacity="1" /><path clip-path="url(#clip270)" d="M1101.93 1548.76 L1101.93 1551.62 L1075.01 1551.62 Q1075.39 1557.67 1078.64 1560.85 Q1081.91 1564 1087.74 1564 Q1091.11 1564 1094.26 1563.17 Q1097.45 1562.35 1100.57 1560.69 L1100.57 1566.23 Q1097.41 1567.57 1094.1 1568.27 Q1090.79 1568.97 1087.39 1568.97 Q1078.86 1568.97 1073.86 1564 Q1068.9 1559.04 1068.9 1550.57 Q1068.9 1541.82 1073.61 1536.69 Q1078.35 1531.54 1086.37 1531.54 Q1093.56 1531.54 1097.73 1536.18 Q1101.93 1540.8 1101.93 1548.76 M1096.08 1547.04 Q1096.01 1542.23 1093.37 1539.37 Q1090.76 1536.5 1086.43 1536.5 Q1081.53 1536.5 1078.57 1539.27 Q1075.64 1542.04 1075.2 1547.07 L1096.08 1547.04 Z" fill="#000000" fill-rule="nonzero" fill-opacity="1" /><path clip-path="url(#clip270)" d="M1117.21 1562.7 L1117.21 1581.6 L1111.32 1581.6 L1111.32 1532.4 L1117.21 1532.4 L1117.21 1537.81 Q1119.06 1534.62 1121.86 1533.1 Q1124.69 1531.54 1128.61 1531.54 Q1135.1 1531.54 1139.14 1536.69 Q1143.22 1541.85 1143.22 1550.25 Q1143.22 1558.65 1139.14 1563.81 Q1135.1 1568.97 1128.61 1568.97 Q1124.69 1568.97 1121.86 1567.44 Q1119.06 1565.88 1117.21 1562.7 M1137.14 1550.25 Q1137.14 1543.79 1134.46 1540.13 Q1131.82 1536.44 1127.17 1536.44 Q1122.53 1536.44 1119.85 1540.13 Q1117.21 1543.79 1117.21 1550.25 Q1117.21 1556.71 1119.85 1560.4 Q1122.53 1564.07 1127.17 1564.07 Q1131.82 1564.07 1134.46 1560.4 Q1137.14 1556.71 1137.14 1550.25 Z" fill="#000000" fill-rule="nonzero" fill-opacity="1" /><path clip-path="url(#clip270)" d="M1152.92 1518.52 L1158.78 1518.52 L1158.78 1568.04 L1152.92 1568.04 L1152.92 1518.52 Z" fill="#000000" fill-rule="nonzero" fill-opacity="1" /><path clip-path="url(#clip270)" d="M1184.85 1536.5 Q1180.14 1536.5 1177.4 1540.19 Q1174.66 1543.85 1174.66 1550.25 Q1174.66 1556.65 1177.37 1560.34 Q1180.11 1564 1184.85 1564 Q1189.53 1564 1192.26 1560.31 Q1195 1556.62 1195 1550.25 Q1195 1543.92 1192.26 1540.23 Q1189.53 1536.5 1184.85 1536.5 M1184.85 1531.54 Q1192.49 1531.54 1196.85 1536.5 Q1201.21 1541.47 1201.21 1550.25 Q1201.21 1559 1196.85 1564 Q1192.49 1568.97 1184.85 1568.97 Q1177.18 1568.97 1172.82 1564 Q1168.49 1559 1168.49 1550.25 Q1168.49 1541.47 1172.82 1536.5 Q1177.18 1531.54 1184.85 1531.54 Z" fill="#000000" fill-rule="nonzero" fill-opacity="1" /><path clip-path="url(#clip270)" d="M1225.75 1571.35 Q1223.26 1577.72 1220.91 1579.66 Q1218.55 1581.6 1214.61 1581.6 L1209.93 1581.6 L1209.93 1576.7 L1213.37 1576.7 Q1215.78 1576.7 1217.12 1575.56 Q1218.46 1574.41 1220.08 1570.14 L1221.13 1567.47 L1206.71 1532.4 L1212.92 1532.4 L1224.06 1560.28 L1235.2 1532.4 L1241.41 1532.4 L1225.75 1571.35 Z" fill="#000000" fill-rule="nonzero" fill-opacity="1" /><path clip-path="url(#clip270)" d="M1277.25 1539.24 Q1279.44 1535.29 1282.5 1533.41 Q1285.55 1531.54 1289.69 1531.54 Q1295.26 1531.54 1298.28 1535.45 Q1301.31 1539.33 1301.31 1546.53 L1301.31 1568.04 L1295.42 1568.04 L1295.42 1546.72 Q1295.42 1541.59 1293.61 1539.11 Q1291.79 1536.63 1288.07 1536.63 Q1283.52 1536.63 1280.87 1539.65 Q1278.23 1542.68 1278.23 1547.9 L1278.23 1568.04 L1272.34 1568.04 L1272.34 1546.72 Q1272.34 1541.56 1270.53 1539.11 Q1268.72 1536.63 1264.93 1536.63 Q1260.44 1536.63 1257.8 1539.68 Q1255.16 1542.71 1255.16 1547.9 L1255.16 1568.04 L1249.27 1568.04 L1249.27 1532.4 L1255.16 1532.4 L1255.16 1537.93 Q1257.16 1534.66 1259.96 1533.1 Q1262.76 1531.54 1266.62 1531.54 Q1270.5 1531.54 1273.2 1533.51 Q1275.94 1535.48 1277.25 1539.24 Z" fill="#000000" fill-rule="nonzero" fill-opacity="1" /><path clip-path="url(#clip270)" d="M1343.48 1548.76 L1343.48 1551.62 L1316.55 1551.62 Q1316.94 1557.67 1320.18 1560.85 Q1323.46 1564 1329.29 1564 Q1332.66 1564 1335.81 1563.17 Q1338.99 1562.35 1342.11 1560.69 L1342.11 1566.23 Q1338.96 1567.57 1335.65 1568.27 Q1332.34 1568.97 1328.94 1568.97 Q1320.41 1568.97 1315.41 1564 Q1310.44 1559.04 1310.44 1550.57 Q1310.44 1541.82 1315.15 1536.69 Q1319.9 1531.54 1327.92 1531.54 Q1335.11 1531.54 1339.28 1536.18 Q1343.48 1540.8 1343.48 1548.76 M1337.62 1547.04 Q1337.56 1542.23 1334.92 1539.37 Q1332.31 1536.5 1327.98 1536.5 Q1323.08 1536.5 1320.12 1539.27 Q1317.19 1542.04 1316.74 1547.07 L1337.62 1547.04 Z" fill="#000000" fill-rule="nonzero" fill-opacity="1" /><path clip-path="url(#clip270)" d="M1382.73 1546.53 L1382.73 1568.04 L1376.87 1568.04 L1376.87 1546.72 Q1376.87 1541.66 1374.9 1539.14 Q1372.92 1536.63 1368.98 1536.63 Q1364.23 1536.63 1361.5 1539.65 Q1358.76 1542.68 1358.76 1547.9 L1358.76 1568.04 L1352.87 1568.04 L1352.87 1532.4 L1358.76 1532.4 L1358.76 1537.93 Q1360.86 1534.72 1363.69 1533.13 Q1366.56 1531.54 1370.28 1531.54 Q1376.42 1531.54 1379.57 1535.36 Q1382.73 1539.14 1382.73 1546.53 Z" fill="#000000" fill-rule="nonzero" fill-opacity="1" /><path clip-path="url(#clip270)" d="M1400.2 1522.27 L1400.2 1532.4 L1412.26 1532.4 L1412.26 1536.95 L1400.2 1536.95 L1400.2 1556.3 Q1400.2 1560.66 1401.38 1561.9 Q1402.59 1563.14 1406.25 1563.14 L1412.26 1563.14 L1412.26 1568.04 L1406.25 1568.04 Q1399.47 1568.04 1396.89 1565.53 Q1394.31 1562.98 1394.31 1556.3 L1394.31 1536.95 L1390.01 1536.95 L1390.01 1532.4 L1394.31 1532.4 L1394.31 1522.27 L1400.2 1522.27 Z" fill="#000000" fill-rule="nonzero" fill-opacity="1" /><path clip-path="url(#clip270)" d="M1434.35 1520.52 L1474.55 1520.52 L1474.55 1525.93 L1457.68 1525.93 L1457.68 1568.04 L1451.22 1568.04 L1451.22 1525.93 L1434.35 1525.93 L1434.35 1520.52 Z" fill="#000000" fill-rule="nonzero" fill-opacity="1" /><path clip-path="url(#clip270)" d="M1485.18 1571.35 Q1482.7 1577.72 1480.34 1579.66 Q1477.99 1581.6 1474.04 1581.6 L1469.36 1581.6 L1469.36 1576.7 L1472.8 1576.7 Q1475.22 1576.7 1476.56 1575.56 Q1477.89 1574.41 1479.52 1570.14 L1480.57 1567.47 L1466.15 1532.4 L1472.35 1532.4 L1483.49 1560.28 L1494.63 1532.4 L1500.84 1532.4 L1485.18 1571.35 Z" fill="#000000" fill-rule="nonzero" fill-opacity="1" /><path clip-path="url(#clip270)" d="M1514.59 1562.7 L1514.59 1581.6 L1508.7 1581.6 L1508.7 1532.4 L1514.59 1532.4 L1514.59 1537.81 Q1516.44 1534.62 1519.24 1533.1 Q1522.07 1531.54 1525.99 1531.54 Q1532.48 1531.54 1536.52 1536.69 Q1540.6 1541.85 1540.6 1550.25 Q1540.6 1558.65 1536.52 1563.81 Q1532.48 1568.97 1525.99 1568.97 Q1522.07 1568.97 1519.24 1567.44 Q1516.44 1565.88 1514.59 1562.7 M1534.52 1550.25 Q1534.52 1543.79 1531.84 1540.13 Q1529.2 1536.44 1524.55 1536.44 Q1519.91 1536.44 1517.23 1540.13 Q1514.59 1543.79 1514.59 1550.25 Q1514.59 1556.71 1517.23 1560.4 Q1519.91 1564.07 1524.55 1564.07 Q1529.2 1564.07 1531.84 1560.4 Q1534.52 1556.71 1534.52 1550.25 Z" fill="#000000" fill-rule="nonzero" fill-opacity="1" /><path clip-path="url(#clip270)" d="M1580.79 1548.76 L1580.79 1551.62 L1553.87 1551.62 Q1554.25 1557.67 1557.5 1560.85 Q1560.77 1564 1566.6 1564 Q1569.97 1564 1573.12 1563.17 Q1576.31 1562.35 1579.43 1560.69 L1579.43 1566.23 Q1576.27 1567.57 1572.96 1568.27 Q1569.65 1568.97 1566.25 1568.97 Q1557.72 1568.97 1552.72 1564 Q1547.76 1559.04 1547.76 1550.57 Q1547.76 1541.82 1552.47 1536.69 Q1557.21 1531.54 1565.23 1531.54 Q1572.42 1531.54 1576.59 1536.18 Q1580.79 1540.8 1580.79 1548.76 M1574.94 1547.04 Q1574.87 1542.23 1572.23 1539.37 Q1569.62 1536.5 1565.29 1536.5 Q1560.39 1536.5 1557.43 1539.27 Q1554.5 1542.04 1554.06 1547.07 L1574.94 1547.04 Z" fill="#000000" fill-rule="nonzero" fill-opacity="1" /><polyline clip-path="url(#clip270)" style="stroke:#000000; stroke-linecap:round; stroke-linejoin:round; stroke-width:4; stroke-opacity:1; fill:none" points="249.542,1423.18 249.542,123.472 "/>
<polyline clip-path="url(#clip270)" style="stroke:#000000; stroke-linecap:round; stroke-linejoin:round; stroke-width:4; stroke-opacity:1; fill:none" points="249.542,1163.27 268.44,1163.27 "/>
<polyline clip-path="url(#clip270)" style="stroke:#000000; stroke-linecap:round; stroke-linejoin:round; stroke-width:4; stroke-opacity:1; fill:none" points="249.542,889.803 268.44,889.803 "/>
<polyline clip-path="url(#clip270)" style="stroke:#000000; stroke-linecap:round; stroke-linejoin:round; stroke-width:4; stroke-opacity:1; fill:none" points="249.542,616.339 268.44,616.339 "/>
<polyline clip-path="url(#clip270)" style="stroke:#000000; stroke-linecap:round; stroke-linejoin:round; stroke-width:4; stroke-opacity:1; fill:none" points="249.542,342.876 268.44,342.876 "/>
<path clip-path="url(#clip270)" d="M127.2 1149.07 Q123.589 1149.07 121.76 1152.63 Q119.955 1156.17 119.955 1163.3 Q119.955 1170.41 121.76 1173.97 Q123.589 1177.51 127.2 1177.51 Q130.834 1177.51 132.64 1173.97 Q134.468 1170.41 134.468 1163.3 Q134.468 1156.17 132.64 1152.63 Q130.834 1149.07 127.2 1149.07 M127.2 1145.36 Q133.01 1145.36 136.066 1149.97 Q139.144 1154.55 139.144 1163.3 Q139.144 1172.03 136.066 1176.63 Q133.01 1181.22 127.2 1181.22 Q121.39 1181.22 118.311 1176.63 Q115.256 1172.03 115.256 1163.3 Q115.256 1154.55 118.311 1149.97 Q121.39 1145.36 127.2 1145.36 Z" fill="#000000" fill-rule="nonzero" fill-opacity="1" /><path clip-path="url(#clip270)" d="M147.362 1174.67 L152.246 1174.67 L152.246 1180.55 L147.362 1180.55 L147.362 1174.67 Z" fill="#000000" fill-rule="nonzero" fill-opacity="1" /><path clip-path="url(#clip270)" d="M166.459 1176.61 L182.778 1176.61 L182.778 1180.55 L160.834 1180.55 L160.834 1176.61 Q163.496 1173.86 168.079 1169.23 Q172.686 1164.57 173.866 1163.23 Q176.112 1160.71 176.991 1158.97 Q177.894 1157.21 177.894 1155.52 Q177.894 1152.77 175.95 1151.03 Q174.028 1149.3 170.927 1149.3 Q168.727 1149.3 166.274 1150.06 Q163.843 1150.82 161.065 1152.38 L161.065 1147.65 Q163.89 1146.52 166.343 1145.94 Q168.797 1145.36 170.834 1145.36 Q176.204 1145.36 179.399 1148.05 Q182.593 1150.73 182.593 1155.22 Q182.593 1157.35 181.783 1159.27 Q180.996 1161.17 178.889 1163.76 Q178.311 1164.44 175.209 1167.65 Q172.107 1170.85 166.459 1176.61 Z" fill="#000000" fill-rule="nonzero" fill-opacity="1" /><path clip-path="url(#clip270)" d="M192.639 1145.99 L210.996 1145.99 L210.996 1149.92 L196.922 1149.92 L196.922 1158.39 Q197.94 1158.05 198.959 1157.88 Q199.977 1157.7 200.996 1157.7 Q206.783 1157.7 210.162 1160.87 Q213.542 1164.04 213.542 1169.46 Q213.542 1175.04 210.07 1178.14 Q206.598 1181.22 200.278 1181.22 Q198.102 1181.22 195.834 1180.85 Q193.588 1180.48 191.181 1179.74 L191.181 1175.04 Q193.264 1176.17 195.487 1176.73 Q197.709 1177.28 200.186 1177.28 Q204.19 1177.28 206.528 1175.18 Q208.866 1173.07 208.866 1169.46 Q208.866 1165.85 206.528 1163.74 Q204.19 1161.63 200.186 1161.63 Q198.311 1161.63 196.436 1162.05 Q194.584 1162.47 192.639 1163.35 L192.639 1145.99 Z" fill="#000000" fill-rule="nonzero" fill-opacity="1" /><path clip-path="url(#clip270)" d="M126.205 875.602 Q122.593 875.602 120.765 879.166 Q118.959 882.708 118.959 889.838 Q118.959 896.944 120.765 900.509 Q122.593 904.051 126.205 904.051 Q129.839 904.051 131.644 900.509 Q133.473 896.944 133.473 889.838 Q133.473 882.708 131.644 879.166 Q129.839 875.602 126.205 875.602 M126.205 871.898 Q132.015 871.898 135.07 876.504 Q138.149 881.088 138.149 889.838 Q138.149 898.564 135.07 903.171 Q132.015 907.754 126.205 907.754 Q120.394 907.754 117.316 903.171 Q114.26 898.564 114.26 889.838 Q114.26 881.088 117.316 876.504 Q120.394 871.898 126.205 871.898 Z" fill="#000000" fill-rule="nonzero" fill-opacity="1" /><path clip-path="url(#clip270)" d="M146.366 901.203 L151.251 901.203 L151.251 907.083 L146.366 907.083 L146.366 901.203 Z" fill="#000000" fill-rule="nonzero" fill-opacity="1" /><path clip-path="url(#clip270)" d="M161.482 872.523 L179.839 872.523 L179.839 876.458 L165.765 876.458 L165.765 884.93 Q166.783 884.583 167.802 884.421 Q168.82 884.236 169.839 884.236 Q175.626 884.236 179.005 887.407 Q182.385 890.578 182.385 895.995 Q182.385 901.574 178.913 904.676 Q175.44 907.754 169.121 907.754 Q166.945 907.754 164.677 907.384 Q162.431 907.013 160.024 906.273 L160.024 901.574 Q162.107 902.708 164.329 903.263 Q166.552 903.819 169.028 903.819 Q173.033 903.819 175.371 901.713 Q177.709 899.606 177.709 895.995 Q177.709 892.384 175.371 890.277 Q173.033 888.171 169.028 888.171 Q167.153 888.171 165.278 888.588 Q163.427 889.004 161.482 889.884 L161.482 872.523 Z" fill="#000000" fill-rule="nonzero" fill-opacity="1" /><path clip-path="url(#clip270)" d="M201.598 875.602 Q197.987 875.602 196.158 879.166 Q194.352 882.708 194.352 889.838 Q194.352 896.944 196.158 900.509 Q197.987 904.051 201.598 904.051 Q205.232 904.051 207.037 900.509 Q208.866 896.944 208.866 889.838 Q208.866 882.708 207.037 879.166 Q205.232 875.602 201.598 875.602 M201.598 871.898 Q207.408 871.898 210.463 876.504 Q213.542 881.088 213.542 889.838 Q213.542 898.564 210.463 903.171 Q207.408 907.754 201.598 907.754 Q195.787 907.754 192.709 903.171 Q189.653 898.564 189.653 889.838 Q189.653 881.088 192.709 876.504 Q195.787 871.898 201.598 871.898 Z" fill="#000000" fill-rule="nonzero" fill-opacity="1" /><path clip-path="url(#clip270)" d="M127.2 602.138 Q123.589 602.138 121.76 605.703 Q119.955 609.245 119.955 616.374 Q119.955 623.481 121.76 627.045 Q123.589 630.587 127.2 630.587 Q130.834 630.587 132.64 627.045 Q134.468 623.481 134.468 616.374 Q134.468 609.245 132.64 605.703 Q130.834 602.138 127.2 602.138 M127.2 598.434 Q133.01 598.434 136.066 603.041 Q139.144 607.624 139.144 616.374 Q139.144 625.101 136.066 629.707 Q133.01 634.291 127.2 634.291 Q121.39 634.291 118.311 629.707 Q115.256 625.101 115.256 616.374 Q115.256 607.624 118.311 603.041 Q121.39 598.434 127.2 598.434 Z" fill="#000000" fill-rule="nonzero" fill-opacity="1" /><path clip-path="url(#clip270)" d="M147.362 627.74 L152.246 627.74 L152.246 633.619 L147.362 633.619 L147.362 627.74 Z" fill="#000000" fill-rule="nonzero" fill-opacity="1" /><path clip-path="url(#clip270)" d="M161.251 599.059 L183.473 599.059 L183.473 601.05 L170.927 633.619 L166.042 633.619 L177.848 602.995 L161.251 602.995 L161.251 599.059 Z" fill="#000000" fill-rule="nonzero" fill-opacity="1" /><path clip-path="url(#clip270)" d="M192.639 599.059 L210.996 599.059 L210.996 602.995 L196.922 602.995 L196.922 611.467 Q197.94 611.12 198.959 610.958 Q199.977 610.772 200.996 610.772 Q206.783 610.772 210.162 613.944 Q213.542 617.115 213.542 622.532 Q213.542 628.11 210.07 631.212 Q206.598 634.291 200.278 634.291 Q198.102 634.291 195.834 633.92 Q193.588 633.55 191.181 632.809 L191.181 628.11 Q193.264 629.244 195.487 629.8 Q197.709 630.356 200.186 630.356 Q204.19 630.356 206.528 628.249 Q208.866 626.143 208.866 622.532 Q208.866 618.92 206.528 616.814 Q204.19 614.708 200.186 614.708 Q198.311 614.708 196.436 615.124 Q194.584 615.541 192.639 616.42 L192.639 599.059 Z" fill="#000000" fill-rule="nonzero" fill-opacity="1" /><path clip-path="url(#clip270)" d="M117.015 356.221 L124.654 356.221 L124.654 329.855 L116.343 331.522 L116.343 327.263 L124.607 325.596 L129.283 325.596 L129.283 356.221 L136.922 356.221 L136.922 360.156 L117.015 360.156 L117.015 356.221 Z" fill="#000000" fill-rule="nonzero" fill-opacity="1" /><path clip-path="url(#clip270)" d="M146.366 354.276 L151.251 354.276 L151.251 360.156 L146.366 360.156 L146.366 354.276 Z" fill="#000000" fill-rule="nonzero" fill-opacity="1" /><path clip-path="url(#clip270)" d="M171.436 328.675 Q167.825 328.675 165.996 332.239 Q164.19 335.781 164.19 342.911 Q164.19 350.017 165.996 353.582 Q167.825 357.124 171.436 357.124 Q175.07 357.124 176.876 353.582 Q178.704 350.017 178.704 342.911 Q178.704 335.781 176.876 332.239 Q175.07 328.675 171.436 328.675 M171.436 324.971 Q177.246 324.971 180.301 329.577 Q183.38 334.161 183.38 342.911 Q183.38 351.638 180.301 356.244 Q177.246 360.827 171.436 360.827 Q165.626 360.827 162.547 356.244 Q159.491 351.638 159.491 342.911 Q159.491 334.161 162.547 329.577 Q165.626 324.971 171.436 324.971 Z" fill="#000000" fill-rule="nonzero" fill-opacity="1" /><path clip-path="url(#clip270)" d="M201.598 328.675 Q197.987 328.675 196.158 332.239 Q194.352 335.781 194.352 342.911 Q194.352 350.017 196.158 353.582 Q197.987 357.124 201.598 357.124 Q205.232 357.124 207.037 353.582 Q208.866 350.017 208.866 342.911 Q208.866 335.781 207.037 332.239 Q205.232 328.675 201.598 328.675 M201.598 324.971 Q207.408 324.971 210.463 329.577 Q213.542 334.161 213.542 342.911 Q213.542 351.638 210.463 356.244 Q207.408 360.827 201.598 360.827 Q195.787 360.827 192.709 356.244 Q189.653 351.638 189.653 342.911 Q189.653 334.161 192.709 329.577 Q195.787 324.971 201.598 324.971 Z" fill="#000000" fill-rule="nonzero" fill-opacity="1" /><path clip-path="url(#clip270)" d="M41.7242 1088.81 Q42.4244 1086.74 44.7161 1084.8 Q47.0077 1082.83 51.0181 1080.85 L64.0042 1074.33 L64.0042 1081.24 L51.8138 1087.31 Q47.0395 1089.67 45.48 1091.9 Q43.9204 1094.09 43.9204 1097.91 L43.9204 1104.92 L64.0042 1104.92 L64.0042 1111.35 L16.4842 1111.35 L16.4842 1096.83 Q16.4842 1088.68 19.8898 1084.67 Q23.2955 1080.66 30.1704 1080.66 Q34.6582 1080.66 37.6183 1082.76 Q40.5784 1084.83 41.7242 1088.81 M21.7677 1104.92 L38.6368 1104.92 L38.6368 1096.83 Q38.6368 1092.18 36.5043 1089.83 Q34.34 1087.44 30.1704 1087.44 Q26.0009 1087.44 23.9002 1089.83 Q21.7677 1092.18 21.7677 1096.83 L21.7677 1104.92 Z" fill="#000000" fill-rule="nonzero" fill-opacity="1" /><path clip-path="url(#clip270)" d="M44.7161 1038.74 L47.5806 1038.74 L47.5806 1065.67 Q53.6281 1065.29 56.8109 1062.04 Q59.9619 1058.76 59.9619 1052.94 Q59.9619 1049.57 59.1344 1046.41 Q58.3069 1043.23 56.6518 1040.11 L62.1899 1040.11 Q63.5267 1043.26 64.227 1046.57 Q64.9272 1049.88 64.9272 1053.29 Q64.9272 1061.82 59.9619 1066.82 Q54.9967 1071.78 46.5303 1071.78 Q37.7774 1071.78 32.6531 1067.07 Q27.4968 1062.33 27.4968 1054.31 Q27.4968 1047.12 32.1438 1042.95 Q36.7589 1038.74 44.7161 1038.74 M42.9973 1044.6 Q38.1912 1044.66 35.3266 1047.31 Q32.4621 1049.92 32.4621 1054.24 Q32.4621 1059.15 35.2312 1062.11 Q38.0002 1065.03 43.0292 1065.48 L42.9973 1044.6 Z" fill="#000000" fill-rule="nonzero" fill-opacity="1" /><path clip-path="url(#clip270)" d="M46.212 1025.63 Q52.6732 1025.63 56.3653 1022.99 Q60.0256 1020.32 60.0256 1015.67 Q60.0256 1011.02 56.3653 1008.35 Q52.6732 1005.67 46.212 1005.67 Q39.7508 1005.67 36.0905 1008.35 Q32.3984 1011.02 32.3984 1015.67 Q32.3984 1020.32 36.0905 1022.99 Q39.7508 1025.63 46.212 1025.63 M58.657 1005.67 Q61.8398 1007.52 63.3994 1010.35 Q64.9272 1013.15 64.9272 1017.1 Q64.9272 1023.56 59.771 1027.64 Q54.6147 1031.68 46.212 1031.68 Q37.8093 1031.68 32.6531 1027.64 Q27.4968 1023.56 27.4968 1017.1 Q27.4968 1013.15 29.0564 1010.35 Q30.5842 1007.52 33.7671 1005.67 L28.3562 1005.67 L28.3562 999.818 L77.5631 999.818 L77.5631 1005.67 L58.657 1005.67 Z" fill="#000000" fill-rule="nonzero" fill-opacity="1" /><path clip-path="url(#clip270)" d="M49.9359 988.36 L28.3562 988.36 L28.3562 982.503 L49.7131 982.503 Q54.7739 982.503 57.3202 980.53 Q59.8346 978.556 59.8346 974.61 Q59.8346 969.867 56.8109 967.13 Q53.7872 964.361 48.5673 964.361 L28.3562 964.361 L28.3562 958.504 L64.0042 958.504 L64.0042 964.361 L58.5296 964.361 Q61.7762 966.493 63.3676 969.326 Q64.9272 972.127 64.9272 975.851 Q64.9272 981.994 61.1078 985.177 Q57.2883 988.36 49.9359 988.36 M27.4968 973.623 L27.4968 973.623 Z" fill="#000000" fill-rule="nonzero" fill-opacity="1" /><path clip-path="url(#clip270)" d="M44.7161 915.95 L47.5806 915.95 L47.5806 942.877 Q53.6281 942.495 56.8109 939.248 Q59.9619 935.97 59.9619 930.145 Q59.9619 926.771 59.1344 923.62 Q58.3069 920.437 56.6518 917.318 L62.1899 917.318 Q63.5267 920.469 64.227 923.779 Q64.9272 927.09 64.9272 930.495 Q64.9272 939.025 59.9619 944.022 Q54.9967 948.988 46.5303 948.988 Q37.7774 948.988 32.6531 944.277 Q27.4968 939.535 27.4968 931.514 Q27.4968 924.321 32.1438 920.151 Q36.7589 915.95 44.7161 915.95 M42.9973 921.806 Q38.1912 921.87 35.3266 924.512 Q32.4621 927.121 32.4621 931.45 Q32.4621 936.352 35.2312 939.312 Q38.0002 942.24 43.0292 942.686 L42.9973 921.806 Z" fill="#000000" fill-rule="nonzero" fill-opacity="1" /><path clip-path="url(#clip270)" d="M29.4065 883.612 L34.9447 883.612 Q33.6716 886.094 33.035 888.768 Q32.3984 891.442 32.3984 894.306 Q32.3984 898.667 33.7352 900.863 Q35.072 903.027 37.7456 903.027 Q39.7826 903.027 40.9603 901.468 Q42.1061 899.908 43.1565 895.197 L43.6021 893.192 Q44.9389 886.954 47.3897 884.344 Q49.8086 881.702 54.1691 881.702 Q59.1344 881.702 62.0308 885.649 Q64.9272 889.564 64.9272 896.439 Q64.9272 899.303 64.3543 902.423 Q63.8132 905.51 62.6992 908.947 L56.6518 908.947 Q58.3387 905.701 59.198 902.55 Q60.0256 899.399 60.0256 896.311 Q60.0256 892.174 58.6251 889.946 Q57.1929 887.718 54.6147 887.718 Q52.2276 887.718 50.9545 889.341 Q49.6813 890.932 48.5037 896.375 L48.0262 898.412 Q46.8804 903.855 44.5251 906.274 Q42.138 908.693 38.0002 908.693 Q32.9713 908.693 30.2341 905.128 Q27.4968 901.563 27.4968 895.006 Q27.4968 891.76 27.9743 888.895 Q28.4517 886.031 29.4065 883.612 Z" fill="#000000" fill-rule="nonzero" fill-opacity="1" /><path clip-path="url(#clip270)" d="M18.2347 866.584 L28.3562 866.584 L28.3562 854.521 L32.9077 854.521 L32.9077 866.584 L52.2594 866.584 Q56.6199 866.584 57.8613 865.406 Q59.1026 864.196 59.1026 860.536 L59.1026 854.521 L64.0042 854.521 L64.0042 860.536 Q64.0042 867.316 61.4897 869.894 Q58.9434 872.472 52.2594 872.472 L32.9077 872.472 L32.9077 876.769 L28.3562 876.769 L28.3562 872.472 L18.2347 872.472 L18.2347 866.584 Z" fill="#000000" fill-rule="nonzero" fill-opacity="1" /><path clip-path="url(#clip270)" d="M29.4065 824.092 L34.9447 824.092 Q33.6716 826.575 33.035 829.249 Q32.3984 831.922 32.3984 834.787 Q32.3984 839.147 33.7352 841.344 Q35.072 843.508 37.7456 843.508 Q39.7826 843.508 40.9603 841.948 Q42.1061 840.389 43.1565 835.678 L43.6021 833.673 Q44.9389 827.434 47.3897 824.825 Q49.8086 822.183 54.1691 822.183 Q59.1344 822.183 62.0308 826.13 Q64.9272 830.044 64.9272 836.919 Q64.9272 839.784 64.3543 842.903 Q63.8132 845.991 62.6992 849.428 L56.6518 849.428 Q58.3387 846.181 59.198 843.03 Q60.0256 839.879 60.0256 836.792 Q60.0256 832.654 58.6251 830.426 Q57.1929 828.198 54.6147 828.198 Q52.2276 828.198 50.9545 829.822 Q49.6813 831.413 48.5037 836.856 L48.0262 838.893 Q46.8804 844.335 44.5251 846.754 Q42.138 849.173 38.0002 849.173 Q32.9713 849.173 30.2341 845.609 Q27.4968 842.044 27.4968 835.487 Q27.4968 832.241 27.9743 829.376 Q28.4517 826.511 29.4065 824.092 Z" fill="#000000" fill-rule="nonzero" fill-opacity="1" /><path clip-path="url(#clip270)" d="M58.657 786.471 L77.5631 786.471 L77.5631 792.359 L28.3562 792.359 L28.3562 786.471 L33.7671 786.471 Q30.5842 784.625 29.0564 781.824 Q27.4968 778.991 27.4968 775.077 Q27.4968 768.584 32.6531 764.541 Q37.8093 760.467 46.212 760.467 Q54.6147 760.467 59.771 764.541 Q64.9272 768.584 64.9272 775.077 Q64.9272 778.991 63.3994 781.824 Q61.8398 784.625 58.657 786.471 M46.212 766.547 Q39.7508 766.547 36.0905 769.22 Q32.3984 771.862 32.3984 776.509 Q32.3984 781.156 36.0905 783.829 Q39.7508 786.471 46.212 786.471 Q52.6732 786.471 56.3653 783.829 Q60.0256 781.156 60.0256 776.509 Q60.0256 771.862 56.3653 769.22 Q52.6732 766.547 46.212 766.547 Z" fill="#000000" fill-rule="nonzero" fill-opacity="1" /><path clip-path="url(#clip270)" d="M44.7161 720.268 L47.5806 720.268 L47.5806 747.195 Q53.6281 746.813 56.8109 743.566 Q59.9619 740.288 59.9619 734.463 Q59.9619 731.09 59.1344 727.938 Q58.3069 724.756 56.6518 721.636 L62.1899 721.636 Q63.5267 724.787 64.227 728.098 Q64.9272 731.408 64.9272 734.813 Q64.9272 743.344 59.9619 748.341 Q54.9967 753.306 46.5303 753.306 Q37.7774 753.306 32.6531 748.595 Q27.4968 743.853 27.4968 735.832 Q27.4968 728.639 32.1438 724.469 Q36.7589 720.268 44.7161 720.268 M42.9973 726.124 Q38.1912 726.188 35.3266 728.83 Q32.4621 731.44 32.4621 735.768 Q32.4621 740.67 35.2312 743.63 Q38.0002 746.558 43.0292 747.004 L42.9973 726.124 Z" fill="#000000" fill-rule="nonzero" fill-opacity="1" /><path clip-path="url(#clip270)" d="M33.8307 689.999 Q33.2578 690.986 33.0032 692.163 Q32.7167 693.309 32.7167 694.71 Q32.7167 699.675 35.9632 702.348 Q39.1779 704.99 45.2253 704.99 L64.0042 704.99 L64.0042 710.878 L28.3562 710.878 L28.3562 704.99 L33.8944 704.99 Q30.6479 703.144 29.0883 700.184 Q27.4968 697.224 27.4968 692.991 Q27.4968 692.386 27.5923 691.654 Q27.656 690.922 27.8151 690.031 L33.8307 689.999 Z" fill="#000000" fill-rule="nonzero" fill-opacity="1" /><path clip-path="url(#clip270)" d="M18.0438 634.394 L24.314 634.394 Q22.5634 638.055 21.704 641.301 Q20.8447 644.548 20.8447 647.571 Q20.8447 652.823 22.8817 655.688 Q24.9187 658.52 28.6745 658.52 Q31.8255 658.52 33.4488 656.643 Q35.0402 654.733 36.0269 649.449 L36.8226 645.566 Q38.1912 638.373 41.6605 634.967 Q45.098 631.53 50.8908 631.53 Q57.7976 631.53 61.3624 636.177 Q64.9272 640.792 64.9272 649.736 Q64.9272 653.11 64.1633 656.929 Q63.3994 660.717 61.9035 664.791 L55.2831 664.791 Q57.4793 660.876 58.5933 657.12 Q59.7073 653.364 59.7073 649.736 Q59.7073 644.229 57.543 641.238 Q55.3786 638.246 51.3682 638.246 Q47.8671 638.246 45.8937 640.41 Q43.9204 642.543 42.9337 647.444 L42.1698 651.359 Q40.7375 658.552 37.682 661.767 Q34.6264 664.982 29.1837 664.982 Q22.8817 664.982 19.2532 660.557 Q15.6248 656.101 15.6248 648.304 Q15.6248 644.962 16.2295 641.492 Q16.8343 638.023 18.0438 634.394 Z" fill="#000000" fill-rule="nonzero" fill-opacity="1" /><path clip-path="url(#clip270)" d="M44.7161 591.267 L47.5806 591.267 L47.5806 618.194 Q53.6281 617.812 56.8109 614.565 Q59.9619 611.287 59.9619 605.462 Q59.9619 602.088 59.1344 598.937 Q58.3069 595.755 56.6518 592.635 L62.1899 592.635 Q63.5267 595.786 64.227 599.097 Q64.9272 602.407 64.9272 605.812 Q64.9272 614.342 59.9619 619.34 Q54.9967 624.305 46.5303 624.305 Q37.7774 624.305 32.6531 619.594 Q27.4968 614.852 27.4968 606.831 Q27.4968 599.638 32.1438 595.468 Q36.7589 591.267 44.7161 591.267 M42.9973 597.123 Q38.1912 597.187 35.3266 599.829 Q32.4621 602.439 32.4621 606.767 Q32.4621 611.669 35.2312 614.629 Q38.0002 617.557 43.0292 618.003 L42.9973 597.123 Z" fill="#000000" fill-rule="nonzero" fill-opacity="1" /><path clip-path="url(#clip270)" d="M29.7248 556.001 L35.1993 556.001 Q33.8307 558.483 33.1623 560.998 Q32.4621 563.48 32.4621 566.027 Q32.4621 571.724 36.0905 574.875 Q39.6872 578.026 46.212 578.026 Q52.7369 578.026 56.3653 574.875 Q59.9619 571.724 59.9619 566.027 Q59.9619 563.48 59.2935 560.998 Q58.5933 558.483 57.2247 556.001 L62.6355 556.001 Q63.7814 558.452 64.3543 561.093 Q64.9272 563.703 64.9272 566.663 Q64.9272 574.716 59.8664 579.458 Q54.8057 584.201 46.212 584.201 Q37.491 584.201 32.4939 579.427 Q27.4968 574.62 27.4968 566.281 Q27.4968 563.576 28.0697 560.998 Q28.6108 558.42 29.7248 556.001 Z" fill="#000000" fill-rule="nonzero" fill-opacity="1" /><path clip-path="url(#clip270)" d="M32.4621 532.002 Q32.4621 536.713 36.1542 539.45 Q39.8145 542.187 46.212 542.187 Q52.6095 542.187 56.3017 539.482 Q59.9619 536.744 59.9619 532.002 Q59.9619 527.323 56.2698 524.586 Q52.5777 521.849 46.212 521.849 Q39.8781 521.849 36.186 524.586 Q32.4621 527.323 32.4621 532.002 M27.4968 532.002 Q27.4968 524.363 32.4621 520.003 Q37.4273 515.642 46.212 515.642 Q54.9649 515.642 59.9619 520.003 Q64.9272 524.363 64.9272 532.002 Q64.9272 539.673 59.9619 544.033 Q54.9649 548.362 46.212 548.362 Q37.4273 548.362 32.4621 544.033 Q27.4968 539.673 27.4968 532.002 Z" fill="#000000" fill-rule="nonzero" fill-opacity="1" /><path clip-path="url(#clip270)" d="M42.4881 476.302 L64.0042 476.302 L64.0042 482.159 L42.679 482.159 Q37.6183 482.159 35.1038 484.132 Q32.5894 486.105 32.5894 490.052 Q32.5894 494.794 35.6131 497.532 Q38.6368 500.269 43.8567 500.269 L64.0042 500.269 L64.0042 506.157 L28.3562 506.157 L28.3562 500.269 L33.8944 500.269 Q30.6797 498.168 29.0883 495.336 Q27.4968 492.471 27.4968 488.747 Q27.4968 482.604 31.3163 479.453 Q35.1038 476.302 42.4881 476.302 Z" fill="#000000" fill-rule="nonzero" fill-opacity="1" /><path clip-path="url(#clip270)" d="M33.7671 441.163 L14.479 441.163 L14.479 435.307 L64.0042 435.307 L64.0042 441.163 L58.657 441.163 Q61.8398 443.009 63.3994 445.842 Q64.9272 448.643 64.9272 452.59 Q64.9272 459.051 59.771 463.125 Q54.6147 467.167 46.212 467.167 Q37.8093 467.167 32.6531 463.125 Q27.4968 459.051 27.4968 452.59 Q27.4968 448.643 29.0564 445.842 Q30.5842 443.009 33.7671 441.163 M46.212 461.12 Q52.6732 461.12 56.3653 458.478 Q60.0256 455.805 60.0256 451.158 Q60.0256 446.511 56.3653 443.837 Q52.6732 441.163 46.212 441.163 Q39.7508 441.163 36.0905 443.837 Q32.3984 446.511 32.3984 451.158 Q32.3984 455.805 36.0905 458.478 Q39.7508 461.12 46.212 461.12 Z" fill="#000000" fill-rule="nonzero" fill-opacity="1" /><path clip-path="url(#clip270)" d="M343.535 44.2197 Q346.169 45.1109 348.64 48.0275 Q351.151 50.9442 353.663 56.0483 L361.967 72.576 L353.177 72.576 L345.439 57.061 Q342.442 50.9847 339.606 48.9997 Q336.811 47.0148 331.95 47.0148 L323.038 47.0148 L323.038 72.576 L314.855 72.576 L314.855 12.096 L333.327 12.096 Q343.698 12.096 348.802 16.4305 Q353.906 20.7649 353.906 29.5149 Q353.906 35.2267 351.232 38.994 Q348.599 42.7613 343.535 44.2197 M323.038 18.8205 L323.038 40.2903 L333.327 40.2903 Q339.242 40.2903 342.239 37.5762 Q345.277 34.8216 345.277 29.5149 Q345.277 24.2082 342.239 21.5346 Q339.242 18.8205 333.327 18.8205 L323.038 18.8205 Z" fill="#000000" fill-rule="nonzero" fill-opacity="1" /><path clip-path="url(#clip270)" d="M407.256 48.0275 L407.256 51.6733 L372.986 51.6733 Q373.472 59.3701 377.604 63.421 Q381.776 67.4314 389.189 67.4314 Q393.483 67.4314 397.494 66.3781 Q401.544 65.3249 405.514 63.2184 L405.514 70.267 Q401.504 71.9684 397.291 72.8596 Q393.078 73.7508 388.744 73.7508 Q377.887 73.7508 371.527 67.4314 Q365.208 61.1119 365.208 50.3365 Q365.208 39.1965 371.203 32.6746 Q377.239 26.1121 387.447 26.1121 Q396.602 26.1121 401.909 32.0264 Q407.256 37.9003 407.256 48.0275 M399.803 45.84 Q399.722 39.7232 396.359 36.0774 Q393.038 32.4315 387.528 32.4315 Q381.29 32.4315 377.523 35.9558 Q373.796 39.4801 373.229 45.8805 L399.803 45.84 Z" fill="#000000" fill-rule="nonzero" fill-opacity="1" /><path clip-path="url(#clip270)" d="M423.946 49.9314 Q423.946 58.1548 427.308 62.8538 Q430.711 67.5124 436.625 67.5124 Q442.54 67.5124 445.942 62.8538 Q449.345 58.1548 449.345 49.9314 Q449.345 41.7081 445.942 37.0496 Q442.54 32.3505 436.625 32.3505 Q430.711 32.3505 427.308 37.0496 Q423.946 41.7081 423.946 49.9314 M449.345 65.7705 Q446.996 69.8214 443.39 71.8063 Q439.825 73.7508 434.802 73.7508 Q426.579 73.7508 421.394 67.1883 Q416.249 60.6258 416.249 49.9314 Q416.249 39.2371 421.394 32.6746 Q426.579 26.1121 434.802 26.1121 Q439.825 26.1121 443.39 28.0971 Q446.996 30.0415 449.345 34.0924 L449.345 27.2059 L456.799 27.2059 L456.799 89.8329 L449.345 89.8329 L449.345 65.7705 Z" fill="#000000" fill-rule="nonzero" fill-opacity="1" /><path clip-path="url(#clip270)" d="M471.382 54.671 L471.382 27.2059 L478.836 27.2059 L478.836 54.3874 Q478.836 60.8284 481.347 64.0691 Q483.859 67.2693 488.882 67.2693 Q494.918 67.2693 498.402 63.421 Q501.926 59.5726 501.926 52.9291 L501.926 27.2059 L509.379 27.2059 L509.379 72.576 L501.926 72.576 L501.926 65.6084 Q499.212 69.7404 495.606 71.7658 Q492.042 73.7508 487.302 73.7508 Q479.484 73.7508 475.433 68.8897 Q471.382 64.0286 471.382 54.671 M490.138 26.1121 L490.138 26.1121 Z" fill="#000000" fill-rule="nonzero" fill-opacity="1" /><path clip-path="url(#clip270)" d="M563.54 48.0275 L563.54 51.6733 L529.269 51.6733 Q529.756 59.3701 533.887 63.421 Q538.06 67.4314 545.473 67.4314 Q549.767 67.4314 553.777 66.3781 Q557.828 65.3249 561.798 63.2184 L561.798 70.267 Q557.788 71.9684 553.575 72.8596 Q549.362 73.7508 545.027 73.7508 Q534.171 73.7508 527.811 67.4314 Q521.492 61.1119 521.492 50.3365 Q521.492 39.1965 527.487 32.6746 Q533.523 26.1121 543.731 26.1121 Q552.886 26.1121 558.193 32.0264 Q563.54 37.9003 563.54 48.0275 M556.086 45.84 Q556.005 39.7232 552.643 36.0774 Q549.321 32.4315 543.812 32.4315 Q537.574 32.4315 533.806 35.9558 Q530.08 39.4801 529.512 45.8805 L556.086 45.84 Z" fill="#000000" fill-rule="nonzero" fill-opacity="1" /><path clip-path="url(#clip270)" d="M604.697 28.5427 L604.697 35.5912 Q601.538 33.9709 598.135 33.1607 Q594.732 32.3505 591.086 32.3505 Q585.536 32.3505 582.741 34.0519 Q579.987 35.7533 579.987 39.156 Q579.987 41.7486 581.972 43.2475 Q583.957 44.7058 589.952 46.0426 L592.504 46.6097 Q600.444 48.3111 603.766 51.4303 Q607.128 54.509 607.128 60.0587 Q607.128 66.3781 602.105 70.0644 Q597.122 73.7508 588.372 73.7508 Q584.726 73.7508 580.756 73.0216 Q576.827 72.3329 572.452 70.9151 L572.452 63.2184 Q576.584 65.3654 580.594 66.4591 Q584.605 67.5124 588.534 67.5124 Q593.8 67.5124 596.636 65.73 Q599.472 63.9071 599.472 60.6258 Q599.472 57.5877 597.406 55.9673 Q595.38 54.3469 588.453 52.8481 L585.861 52.2405 Q578.934 50.7821 575.855 47.7845 Q572.776 44.7463 572.776 39.4801 Q572.776 33.0797 577.313 29.5959 Q581.85 26.1121 590.195 26.1121 Q594.327 26.1121 597.973 26.7198 Q601.619 27.3274 604.697 28.5427 Z" fill="#000000" fill-rule="nonzero" fill-opacity="1" /><path clip-path="url(#clip270)" d="M626.37 14.324 L626.37 27.2059 L641.723 27.2059 L641.723 32.9987 L626.37 32.9987 L626.37 57.6282 Q626.37 63.1779 627.868 64.7578 Q629.408 66.3376 634.066 66.3376 L641.723 66.3376 L641.723 72.576 L634.066 72.576 Q625.438 72.576 622.157 69.3758 Q618.875 66.1351 618.875 57.6282 L618.875 32.9987 L613.407 32.9987 L613.407 27.2059 L618.875 27.2059 L618.875 14.324 L626.37 14.324 Z" fill="#000000" fill-rule="nonzero" fill-opacity="1" /><path clip-path="url(#clip270)" d="M680.449 28.5427 L680.449 35.5912 Q677.289 33.9709 673.887 33.1607 Q670.484 32.3505 666.838 32.3505 Q661.288 32.3505 658.493 34.0519 Q655.739 35.7533 655.739 39.156 Q655.739 41.7486 657.724 43.2475 Q659.709 44.7058 665.704 46.0426 L668.256 46.6097 Q676.196 48.3111 679.517 51.4303 Q682.88 54.509 682.88 60.0587 Q682.88 66.3781 677.857 70.0644 Q672.874 73.7508 664.124 73.7508 Q660.478 73.7508 656.508 73.0216 Q652.579 72.3329 648.204 70.9151 L648.204 63.2184 Q652.336 65.3654 656.346 66.4591 Q660.357 67.5124 664.286 67.5124 Q669.552 67.5124 672.388 65.73 Q675.224 63.9071 675.224 60.6258 Q675.224 57.5877 673.158 55.9673 Q671.132 54.3469 664.205 52.8481 L661.612 52.2405 Q654.685 50.7821 651.607 47.7845 Q648.528 44.7463 648.528 39.4801 Q648.528 33.0797 653.065 29.5959 Q657.602 26.1121 665.947 26.1121 Q670.079 26.1121 673.725 26.7198 Q677.37 27.3274 680.449 28.5427 Z" fill="#000000" fill-rule="nonzero" fill-opacity="1" /><path clip-path="url(#clip270)" d="M728.331 65.7705 L728.331 89.8329 L720.837 89.8329 L720.837 27.2059 L728.331 27.2059 L728.331 34.0924 Q730.68 30.0415 734.245 28.0971 Q737.85 26.1121 742.833 26.1121 Q751.097 26.1121 756.242 32.6746 Q761.427 39.2371 761.427 49.9314 Q761.427 60.6258 756.242 67.1883 Q751.097 73.7508 742.833 73.7508 Q737.85 73.7508 734.245 71.8063 Q730.68 69.8214 728.331 65.7705 M753.69 49.9314 Q753.69 41.7081 750.287 37.0496 Q746.925 32.3505 741.01 32.3505 Q735.096 32.3505 731.693 37.0496 Q728.331 41.7081 728.331 49.9314 Q728.331 58.1548 731.693 62.8538 Q735.096 67.5124 741.01 67.5124 Q746.925 67.5124 750.287 62.8538 Q753.69 58.1548 753.69 49.9314 Z" fill="#000000" fill-rule="nonzero" fill-opacity="1" /><path clip-path="url(#clip270)" d="M812.59 48.0275 L812.59 51.6733 L778.319 51.6733 Q778.805 59.3701 782.937 63.421 Q787.109 67.4314 794.523 67.4314 Q798.817 67.4314 802.827 66.3781 Q806.878 65.3249 810.848 63.2184 L810.848 70.267 Q806.837 71.9684 802.624 72.8596 Q798.412 73.7508 794.077 73.7508 Q783.221 73.7508 776.861 67.4314 Q770.541 61.1119 770.541 50.3365 Q770.541 39.1965 776.537 32.6746 Q782.572 26.1121 792.781 26.1121 Q801.936 26.1121 807.242 32.0264 Q812.59 37.9003 812.59 48.0275 M805.136 45.84 Q805.055 39.7232 801.693 36.0774 Q798.371 32.4315 792.862 32.4315 Q786.623 32.4315 782.856 35.9558 Q779.129 39.4801 778.562 45.8805 L805.136 45.84 Z" fill="#000000" fill-rule="nonzero" fill-opacity="1" /><path clip-path="url(#clip270)" d="M851.114 34.1734 Q849.858 33.4443 848.359 33.1202 Q846.901 32.7556 845.118 32.7556 Q838.799 32.7556 835.396 36.8875 Q832.034 40.9789 832.034 48.6757 L832.034 72.576 L824.54 72.576 L824.54 27.2059 L832.034 27.2059 L832.034 34.2544 Q834.384 30.1225 838.151 28.1376 Q841.918 26.1121 847.306 26.1121 Q848.076 26.1121 849.007 26.2337 Q849.939 26.3147 851.073 26.5172 L851.114 34.1734 Z" fill="#000000" fill-rule="nonzero" fill-opacity="1" /><path clip-path="url(#clip270)" d="M921.883 14.0809 L921.883 22.0612 Q917.225 19.8332 913.093 18.7395 Q908.961 17.6457 905.112 17.6457 Q898.428 17.6457 894.783 20.2383 Q891.177 22.8309 891.177 27.611 Q891.177 31.6214 893.567 33.6873 Q895.998 35.7128 902.722 36.9686 L907.664 37.9813 Q916.819 39.7232 921.154 44.1387 Q925.529 48.5136 925.529 55.8863 Q925.529 64.6767 919.615 69.2137 Q913.741 73.7508 902.358 73.7508 Q898.064 73.7508 893.203 72.7785 Q888.382 71.8063 883.197 69.9024 L883.197 61.4765 Q888.18 64.2716 892.96 65.6895 Q897.74 67.1073 902.358 67.1073 Q909.366 67.1073 913.174 64.3527 Q916.981 61.598 916.981 56.4939 Q916.981 52.0379 914.227 49.5264 Q911.513 47.0148 905.274 45.759 L900.292 44.7868 Q891.137 42.9639 887.045 39.075 Q882.954 35.1862 882.954 28.2591 Q882.954 20.2383 888.585 15.6203 Q894.256 11.0023 904.181 11.0023 Q908.434 11.0023 912.85 11.7719 Q917.265 12.5416 921.883 14.0809 Z" fill="#000000" fill-rule="nonzero" fill-opacity="1" /><path clip-path="url(#clip270)" d="M976.773 48.0275 L976.773 51.6733 L942.502 51.6733 Q942.988 59.3701 947.12 63.421 Q951.293 67.4314 958.706 67.4314 Q963 67.4314 967.01 66.3781 Q971.061 65.3249 975.031 63.2184 L975.031 70.267 Q971.021 71.9684 966.808 72.8596 Q962.595 73.7508 958.26 73.7508 Q947.404 73.7508 941.044 67.4314 Q934.724 61.1119 934.724 50.3365 Q934.724 39.1965 940.72 32.6746 Q946.756 26.1121 956.964 26.1121 Q966.119 26.1121 971.426 32.0264 Q976.773 37.9003 976.773 48.0275 M969.319 45.84 Q969.238 39.7232 965.876 36.0774 Q962.554 32.4315 957.045 32.4315 Q950.807 32.4315 947.039 35.9558 Q943.312 39.4801 942.745 45.8805 L969.319 45.84 Z" fill="#000000" fill-rule="nonzero" fill-opacity="1" /><path clip-path="url(#clip270)" d="M1021.66 28.9478 L1021.66 35.9153 Q1018.5 34.1734 1015.3 33.3227 Q1012.14 32.4315 1008.9 32.4315 Q1001.65 32.4315 997.635 37.0496 Q993.625 41.6271 993.625 49.9314 Q993.625 58.2358 997.635 62.8538 Q1001.65 67.4314 1008.9 67.4314 Q1012.14 67.4314 1015.3 66.5807 Q1018.5 65.6895 1021.66 63.9476 L1021.66 70.8341 Q1018.54 72.2924 1015.18 73.0216 Q1011.85 73.7508 1008.09 73.7508 Q997.838 73.7508 991.802 67.3098 Q985.766 60.8689 985.766 49.9314 Q985.766 38.832 991.842 32.472 Q997.959 26.1121 1008.57 26.1121 Q1012.02 26.1121 1015.3 26.8413 Q1018.58 27.5299 1021.66 28.9478 Z" fill="#000000" fill-rule="nonzero" fill-opacity="1" /><path clip-path="url(#clip270)" d="M1052.2 32.4315 Q1046.21 32.4315 1042.72 37.1306 Q1039.24 41.7891 1039.24 49.9314 Q1039.24 58.0738 1042.68 62.7728 Q1046.16 67.4314 1052.2 67.4314 Q1058.16 67.4314 1061.64 62.7323 Q1065.12 58.0333 1065.12 49.9314 Q1065.12 41.8701 1061.64 37.1711 Q1058.16 32.4315 1052.2 32.4315 M1052.2 26.1121 Q1061.92 26.1121 1067.47 32.4315 Q1073.02 38.7509 1073.02 49.9314 Q1073.02 61.0714 1067.47 67.4314 Q1061.92 73.7508 1052.2 73.7508 Q1042.44 73.7508 1036.89 67.4314 Q1031.38 61.0714 1031.38 49.9314 Q1031.38 38.7509 1036.89 32.4315 Q1042.44 26.1121 1052.2 26.1121 Z" fill="#000000" fill-rule="nonzero" fill-opacity="1" /><path clip-path="url(#clip270)" d="M1123.09 45.1919 L1123.09 72.576 L1115.64 72.576 L1115.64 45.4349 Q1115.64 38.994 1113.13 35.7938 Q1110.61 32.5936 1105.59 32.5936 Q1099.56 32.5936 1096.07 36.4419 Q1092.59 40.2903 1092.59 46.9338 L1092.59 72.576 L1085.09 72.576 L1085.09 27.2059 L1092.59 27.2059 L1092.59 34.2544 Q1095.26 30.163 1098.87 28.1376 Q1102.51 26.1121 1107.25 26.1121 Q1115.07 26.1121 1119.08 30.9732 Q1123.09 35.7938 1123.09 45.1919 Z" fill="#000000" fill-rule="nonzero" fill-opacity="1" /><path clip-path="url(#clip270)" d="M1167.81 34.0924 L1167.81 9.54393 L1175.27 9.54393 L1175.27 72.576 L1167.81 72.576 L1167.81 65.7705 Q1165.46 69.8214 1161.86 71.8063 Q1158.29 73.7508 1153.27 73.7508 Q1145.05 73.7508 1139.86 67.1883 Q1134.72 60.6258 1134.72 49.9314 Q1134.72 39.2371 1139.86 32.6746 Q1145.05 26.1121 1153.27 26.1121 Q1158.29 26.1121 1161.86 28.0971 Q1165.46 30.0415 1167.81 34.0924 M1142.41 49.9314 Q1142.41 58.1548 1145.78 62.8538 Q1149.18 67.5124 1155.09 67.5124 Q1161.01 67.5124 1164.41 62.8538 Q1167.81 58.1548 1167.81 49.9314 Q1167.81 41.7081 1164.41 37.0496 Q1161.01 32.3505 1155.09 32.3505 Q1149.18 32.3505 1145.78 37.0496 Q1142.41 41.7081 1142.41 49.9314 Z" fill="#000000" fill-rule="nonzero" fill-opacity="1" /><path clip-path="url(#clip270)" d="M1239.96 9.54393 L1239.96 15.7418 L1232.83 15.7418 Q1228.82 15.7418 1227.24 17.3622 Q1225.7 18.9825 1225.7 23.1955 L1225.7 27.2059 L1237.98 27.2059 L1237.98 32.9987 L1225.7 32.9987 L1225.7 72.576 L1218.21 72.576 L1218.21 32.9987 L1211.08 32.9987 L1211.08 27.2059 L1218.21 27.2059 L1218.21 24.0462 Q1218.21 16.471 1221.73 13.0277 Q1225.26 9.54393 1232.91 9.54393 L1239.96 9.54393 Z" fill="#000000" fill-rule="nonzero" fill-opacity="1" /><path clip-path="url(#clip270)" d="M1263.78 32.4315 Q1257.78 32.4315 1254.3 37.1306 Q1250.82 41.7891 1250.82 49.9314 Q1250.82 58.0738 1254.26 62.7728 Q1257.74 67.4314 1263.78 67.4314 Q1269.73 67.4314 1273.22 62.7323 Q1276.7 58.0333 1276.7 49.9314 Q1276.7 41.8701 1273.22 37.1711 Q1269.73 32.4315 1263.78 32.4315 M1263.78 26.1121 Q1273.5 26.1121 1279.05 32.4315 Q1284.6 38.7509 1284.6 49.9314 Q1284.6 61.0714 1279.05 67.4314 Q1273.5 73.7508 1263.78 73.7508 Q1254.02 73.7508 1248.47 67.4314 Q1242.96 61.0714 1242.96 49.9314 Q1242.96 38.7509 1248.47 32.4315 Q1254.02 26.1121 1263.78 26.1121 Z" fill="#000000" fill-rule="nonzero" fill-opacity="1" /><path clip-path="url(#clip270)" d="M1323.25 34.1734 Q1321.99 33.4443 1320.49 33.1202 Q1319.03 32.7556 1317.25 32.7556 Q1310.93 32.7556 1307.53 36.8875 Q1304.17 40.9789 1304.17 48.6757 L1304.17 72.576 L1296.67 72.576 L1296.67 27.2059 L1304.17 27.2059 L1304.17 34.2544 Q1306.52 30.1225 1310.28 28.1376 Q1314.05 26.1121 1319.44 26.1121 Q1320.21 26.1121 1321.14 26.2337 Q1322.07 26.3147 1323.21 26.5172 L1323.25 34.1734 Z" fill="#000000" fill-rule="nonzero" fill-opacity="1" /><path clip-path="url(#clip270)" d="M1365.94 18.8205 L1365.94 65.8515 L1375.83 65.8515 Q1388.34 65.8515 1394.14 60.1802 Q1399.97 54.509 1399.97 42.2752 Q1399.97 30.1225 1394.14 24.4918 Q1388.34 18.8205 1375.83 18.8205 L1365.94 18.8205 M1357.76 12.096 L1374.57 12.096 Q1392.15 12.096 1400.38 19.4281 Q1408.6 26.7198 1408.6 42.2752 Q1408.6 57.9117 1400.34 65.2439 Q1392.07 72.576 1374.57 72.576 L1357.76 72.576 L1357.76 12.096 Z" fill="#000000" fill-rule="nonzero" fill-opacity="1" /><path clip-path="url(#clip270)" d="M1421.32 27.2059 L1428.77 27.2059 L1428.77 72.576 L1421.32 72.576 L1421.32 27.2059 M1421.32 9.54393 L1428.77 9.54393 L1428.77 18.9825 L1421.32 18.9825 L1421.32 9.54393 Z" fill="#000000" fill-rule="nonzero" fill-opacity="1" /><path clip-path="url(#clip270)" d="M1467.34 9.54393 L1467.34 15.7418 L1460.21 15.7418 Q1456.2 15.7418 1454.62 17.3622 Q1453.08 18.9825 1453.08 23.1955 L1453.08 27.2059 L1465.35 27.2059 L1465.35 32.9987 L1453.08 32.9987 L1453.08 72.576 L1445.58 72.576 L1445.58 32.9987 L1438.45 32.9987 L1438.45 27.2059 L1445.58 27.2059 L1445.58 24.0462 Q1445.58 16.471 1449.11 13.0277 Q1452.63 9.54393 1460.29 9.54393 L1467.34 9.54393 Z" fill="#000000" fill-rule="nonzero" fill-opacity="1" /><path clip-path="url(#clip270)" d="M1496.54 9.54393 L1496.54 15.7418 L1489.41 15.7418 Q1485.4 15.7418 1483.82 17.3622 Q1482.29 18.9825 1482.29 23.1955 L1482.29 27.2059 L1494.56 27.2059 L1494.56 32.9987 L1482.29 32.9987 L1482.29 72.576 L1474.79 72.576 L1474.79 32.9987 L1467.66 32.9987 L1467.66 27.2059 L1474.79 27.2059 L1474.79 24.0462 Q1474.79 16.471 1478.32 13.0277 Q1481.84 9.54393 1489.5 9.54393 L1496.54 9.54393 Z" fill="#000000" fill-rule="nonzero" fill-opacity="1" /><path clip-path="url(#clip270)" d="M1541.59 48.0275 L1541.59 51.6733 L1507.32 51.6733 Q1507.81 59.3701 1511.94 63.421 Q1516.11 67.4314 1523.52 67.4314 Q1527.82 67.4314 1531.83 66.3781 Q1535.88 65.3249 1539.85 63.2184 L1539.85 70.267 Q1535.84 71.9684 1531.63 72.8596 Q1527.41 73.7508 1523.08 73.7508 Q1512.22 73.7508 1505.86 67.4314 Q1499.54 61.1119 1499.54 50.3365 Q1499.54 39.1965 1505.54 32.6746 Q1511.57 26.1121 1521.78 26.1121 Q1530.94 26.1121 1536.24 32.0264 Q1541.59 37.9003 1541.59 48.0275 M1534.14 45.84 Q1534.06 39.7232 1530.69 36.0774 Q1527.37 32.4315 1521.86 32.4315 Q1515.62 32.4315 1511.86 35.9558 Q1508.13 39.4801 1507.56 45.8805 L1534.14 45.84 Z" fill="#000000" fill-rule="nonzero" fill-opacity="1" /><path clip-path="url(#clip270)" d="M1580.11 34.1734 Q1578.86 33.4443 1577.36 33.1202 Q1575.9 32.7556 1574.12 32.7556 Q1567.8 32.7556 1564.4 36.8875 Q1561.03 40.9789 1561.03 48.6757 L1561.03 72.576 L1553.54 72.576 L1553.54 27.2059 L1561.03 27.2059 L1561.03 34.2544 Q1563.38 30.1225 1567.15 28.1376 Q1570.92 26.1121 1576.31 26.1121 Q1577.08 26.1121 1578.01 26.2337 Q1578.94 26.3147 1580.07 26.5172 L1580.11 34.1734 Z" fill="#000000" fill-rule="nonzero" fill-opacity="1" /><path clip-path="url(#clip270)" d="M1624.92 48.0275 L1624.92 51.6733 L1590.65 51.6733 Q1591.13 59.3701 1595.26 63.421 Q1599.44 67.4314 1606.85 67.4314 Q1611.14 67.4314 1615.15 66.3781 Q1619.21 65.3249 1623.18 63.2184 L1623.18 70.267 Q1619.17 71.9684 1614.95 72.8596 Q1610.74 73.7508 1606.4 73.7508 Q1595.55 73.7508 1589.19 67.4314 Q1582.87 61.1119 1582.87 50.3365 Q1582.87 39.1965 1588.86 32.6746 Q1594.9 26.1121 1605.11 26.1121 Q1614.26 26.1121 1619.57 32.0264 Q1624.92 37.9003 1624.92 48.0275 M1617.46 45.84 Q1617.38 39.7232 1614.02 36.0774 Q1610.7 32.4315 1605.19 32.4315 Q1598.95 32.4315 1595.18 35.9558 Q1591.46 39.4801 1590.89 45.8805 L1617.46 45.84 Z" fill="#000000" fill-rule="nonzero" fill-opacity="1" /><path clip-path="url(#clip270)" d="M1674.87 45.1919 L1674.87 72.576 L1667.41 72.576 L1667.41 45.4349 Q1667.41 38.994 1664.9 35.7938 Q1662.39 32.5936 1657.37 32.5936 Q1651.33 32.5936 1647.85 36.4419 Q1644.36 40.2903 1644.36 46.9338 L1644.36 72.576 L1636.87 72.576 L1636.87 27.2059 L1644.36 27.2059 L1644.36 34.2544 Q1647.04 30.163 1650.64 28.1376 Q1654.29 26.1121 1659.03 26.1121 Q1666.84 26.1121 1670.85 30.9732 Q1674.87 35.7938 1674.87 45.1919 Z" fill="#000000" fill-rule="nonzero" fill-opacity="1" /><path clip-path="url(#clip270)" d="M1697.1 14.324 L1697.1 27.2059 L1712.46 27.2059 L1712.46 32.9987 L1697.1 32.9987 L1697.1 57.6282 Q1697.1 63.1779 1698.6 64.7578 Q1700.14 66.3376 1704.8 66.3376 L1712.46 66.3376 L1712.46 72.576 L1704.8 72.576 Q1696.17 72.576 1692.89 69.3758 Q1689.61 66.1351 1689.61 57.6282 L1689.61 32.9987 L1684.14 32.9987 L1684.14 27.2059 L1689.61 27.2059 L1689.61 14.324 L1697.1 14.324 Z" fill="#000000" fill-rule="nonzero" fill-opacity="1" /><path clip-path="url(#clip270)" d="M1757.14 18.8205 L1757.14 65.8515 L1767.02 65.8515 Q1779.54 65.8515 1785.33 60.1802 Q1791.17 54.509 1791.17 42.2752 Q1791.17 30.1225 1785.33 24.4918 Q1779.54 18.8205 1767.02 18.8205 L1757.14 18.8205 M1748.96 12.096 L1765.77 12.096 Q1783.35 12.096 1791.57 19.4281 Q1799.8 26.7198 1799.8 42.2752 Q1799.8 57.9117 1791.53 65.2439 Q1783.27 72.576 1765.77 72.576 L1748.96 72.576 L1748.96 12.096 Z" fill="#000000" fill-rule="nonzero" fill-opacity="1" /><path clip-path="url(#clip270)" d="M1851.32 48.0275 L1851.32 51.6733 L1817.05 51.6733 Q1817.54 59.3701 1821.67 63.421 Q1825.84 67.4314 1833.26 67.4314 Q1837.55 67.4314 1841.56 66.3781 Q1845.61 65.3249 1849.58 63.2184 L1849.58 70.267 Q1845.57 71.9684 1841.36 72.8596 Q1837.14 73.7508 1832.81 73.7508 Q1821.95 73.7508 1815.59 67.4314 Q1809.27 61.1119 1809.27 50.3365 Q1809.27 39.1965 1815.27 32.6746 Q1821.31 26.1121 1831.51 26.1121 Q1840.67 26.1121 1845.98 32.0264 Q1851.32 37.9003 1851.32 48.0275 M1843.87 45.84 Q1843.79 39.7232 1840.43 36.0774 Q1837.1 32.4315 1831.59 32.4315 Q1825.36 32.4315 1821.59 35.9558 Q1817.86 39.4801 1817.29 45.8805 L1843.87 45.84 Z" fill="#000000" fill-rule="nonzero" fill-opacity="1" /><path clip-path="url(#clip270)" d="M1870.77 65.7705 L1870.77 89.8329 L1863.27 89.8329 L1863.27 27.2059 L1870.77 27.2059 L1870.77 34.0924 Q1873.12 30.0415 1876.68 28.0971 Q1880.29 26.1121 1885.27 26.1121 Q1893.53 26.1121 1898.68 32.6746 Q1903.86 39.2371 1903.86 49.9314 Q1903.86 60.6258 1898.68 67.1883 Q1893.53 73.7508 1885.27 73.7508 Q1880.29 73.7508 1876.68 71.8063 Q1873.12 69.8214 1870.77 65.7705 M1896.13 49.9314 Q1896.13 41.7081 1892.72 37.0496 Q1889.36 32.3505 1883.45 32.3505 Q1877.53 32.3505 1874.13 37.0496 Q1870.77 41.7081 1870.77 49.9314 Q1870.77 58.1548 1874.13 62.8538 Q1877.53 67.5124 1883.45 67.5124 Q1889.36 67.5124 1892.72 62.8538 Q1896.13 58.1548 1896.13 49.9314 Z" fill="#000000" fill-rule="nonzero" fill-opacity="1" /><path clip-path="url(#clip270)" d="M1916.22 9.54393 L1923.67 9.54393 L1923.67 72.576 L1916.22 72.576 L1916.22 9.54393 Z" fill="#000000" fill-rule="nonzero" fill-opacity="1" /><path clip-path="url(#clip270)" d="M1956.85 32.4315 Q1950.85 32.4315 1947.37 37.1306 Q1943.89 41.7891 1943.89 49.9314 Q1943.89 58.0738 1947.33 62.7728 Q1950.81 67.4314 1956.85 67.4314 Q1962.8 67.4314 1966.29 62.7323 Q1969.77 58.0333 1969.77 49.9314 Q1969.77 41.8701 1966.29 37.1711 Q1962.8 32.4315 1956.85 32.4315 M1956.85 26.1121 Q1966.57 26.1121 1972.12 32.4315 Q1977.67 38.7509 1977.67 49.9314 Q1977.67 61.0714 1972.12 67.4314 Q1966.57 73.7508 1956.85 73.7508 Q1947.09 73.7508 1941.54 67.4314 Q1936.03 61.0714 1936.03 49.9314 Q1936.03 38.7509 1941.54 32.4315 Q1947.09 26.1121 1956.85 26.1121 Z" fill="#000000" fill-rule="nonzero" fill-opacity="1" /><path clip-path="url(#clip270)" d="M2008.9 76.7889 Q2005.74 84.8907 2002.75 87.3618 Q1999.75 89.8329 1994.72 89.8329 L1988.77 89.8329 L1988.77 83.5945 L1993.14 83.5945 Q1996.22 83.5945 1997.92 82.1361 Q1999.63 80.6778 2001.69 75.2496 L2003.03 71.8468 L1984.68 27.2059 L1992.58 27.2059 L2006.76 62.6918 L2020.93 27.2059 L2028.83 27.2059 L2008.9 76.7889 Z" fill="#000000" fill-rule="nonzero" fill-opacity="1" /><path clip-path="url(#clip270)" d="M2074.45 35.9153 Q2077.24 30.8922 2081.13 28.5022 Q2085.02 26.1121 2090.29 26.1121 Q2097.37 26.1121 2101.22 31.0947 Q2105.07 36.0368 2105.07 45.1919 L2105.07 72.576 L2097.58 72.576 L2097.58 45.4349 Q2097.58 38.913 2095.27 35.7533 Q2092.96 32.5936 2088.22 32.5936 Q2082.43 32.5936 2079.06 36.4419 Q2075.7 40.2903 2075.7 46.9338 L2075.7 72.576 L2068.21 72.576 L2068.21 45.4349 Q2068.21 38.8725 2065.9 35.7533 Q2063.59 32.5936 2058.77 32.5936 Q2053.06 32.5936 2049.7 36.4824 Q2046.33 40.3308 2046.33 46.9338 L2046.33 72.576 L2038.84 72.576 L2038.84 27.2059 L2046.33 27.2059 L2046.33 34.2544 Q2048.89 30.082 2052.45 28.0971 Q2056.01 26.1121 2060.92 26.1121 Q2065.86 26.1121 2069.3 28.6237 Q2072.79 31.1352 2074.45 35.9153 Z" fill="#000000" fill-rule="nonzero" fill-opacity="1" /><path clip-path="url(#clip270)" d="M2158.75 48.0275 L2158.75 51.6733 L2124.47 51.6733 Q2124.96 59.3701 2129.09 63.421 Q2133.27 67.4314 2140.68 67.4314 Q2144.97 67.4314 2148.98 66.3781 Q2153.03 65.3249 2157 63.2184 L2157 70.267 Q2152.99 71.9684 2148.78 72.8596 Q2144.57 73.7508 2140.23 73.7508 Q2129.38 73.7508 2123.02 67.4314 Q2116.7 61.1119 2116.7 50.3365 Q2116.7 39.1965 2122.69 32.6746 Q2128.73 26.1121 2138.94 26.1121 Q2148.09 26.1121 2153.4 32.0264 Q2158.75 37.9003 2158.75 48.0275 M2151.29 45.84 Q2151.21 39.7232 2147.85 36.0774 Q2144.53 32.4315 2139.02 32.4315 Q2132.78 32.4315 2129.01 35.9558 Q2125.29 39.4801 2124.72 45.8805 L2151.29 45.84 Z" fill="#000000" fill-rule="nonzero" fill-opacity="1" /><path clip-path="url(#clip270)" d="M2208.69 45.1919 L2208.69 72.576 L2201.24 72.576 L2201.24 45.4349 Q2201.24 38.994 2198.73 35.7938 Q2196.22 32.5936 2191.19 32.5936 Q2185.16 32.5936 2181.67 36.4419 Q2178.19 40.2903 2178.19 46.9338 L2178.19 72.576 L2170.7 72.576 L2170.7 27.2059 L2178.19 27.2059 L2178.19 34.2544 Q2180.86 30.163 2184.47 28.1376 Q2188.11 26.1121 2192.85 26.1121 Q2200.67 26.1121 2204.68 30.9732 Q2208.69 35.7938 2208.69 45.1919 Z" fill="#000000" fill-rule="nonzero" fill-opacity="1" /><path clip-path="url(#clip270)" d="M2230.93 14.324 L2230.93 27.2059 L2246.29 27.2059 L2246.29 32.9987 L2230.93 32.9987 L2230.93 57.6282 Q2230.93 63.1779 2232.43 64.7578 Q2233.97 66.3376 2238.63 66.3376 L2246.29 66.3376 L2246.29 72.576 L2238.63 72.576 Q2230 72.576 2226.72 69.3758 Q2223.44 66.1351 2223.44 57.6282 L2223.44 32.9987 L2217.97 32.9987 L2217.97 27.2059 L2223.44 27.2059 L2223.44 14.324 L2230.93 14.324 Z" fill="#000000" fill-rule="nonzero" fill-opacity="1" /><path clip-path="url(#clip270)" d="M2285.01 28.5427 L2285.01 35.5912 Q2281.85 33.9709 2278.45 33.1607 Q2275.05 32.3505 2271.4 32.3505 Q2265.85 32.3505 2263.06 34.0519 Q2260.3 35.7533 2260.3 39.156 Q2260.3 41.7486 2262.29 43.2475 Q2264.27 44.7058 2270.27 46.0426 L2272.82 46.6097 Q2280.76 48.3111 2284.08 51.4303 Q2287.44 54.509 2287.44 60.0587 Q2287.44 66.3781 2282.42 70.0644 Q2277.44 73.7508 2268.69 73.7508 Q2265.04 73.7508 2261.07 73.0216 Q2257.14 72.3329 2252.77 70.9151 L2252.77 63.2184 Q2256.9 65.3654 2260.91 66.4591 Q2264.92 67.5124 2268.85 67.5124 Q2274.12 67.5124 2276.95 65.73 Q2279.79 63.9071 2279.79 60.6258 Q2279.79 57.5877 2277.72 55.9673 Q2275.7 54.3469 2268.77 52.8481 L2266.18 52.2405 Q2259.25 50.7821 2256.17 47.7845 Q2253.09 44.7463 2253.09 39.4801 Q2253.09 33.0797 2257.63 29.5959 Q2262.17 26.1121 2270.51 26.1121 Q2274.64 26.1121 2278.29 26.7198 Q2281.93 27.3274 2285.01 28.5427 Z" fill="#000000" fill-rule="nonzero" fill-opacity="1" /><polyline clip-path="url(#clip272)" style="stroke:#009af9; stroke-linecap:round; stroke-linejoin:round; stroke-width:8; stroke-opacity:1; fill:none" points="309.067,160.256 1301.15,1347.06 2293.23,1386.4 "/>
<circle clip-path="url(#clip272)" cx="309.067" cy="160.256" r="14.4" fill="#009af9" fill-rule="evenodd" fill-opacity="1" stroke="#000000" stroke-opacity="1" stroke-width="3.2"/>
<circle clip-path="url(#clip272)" cx="1301.15" cy="1347.06" r="14.4" fill="#009af9" fill-rule="evenodd" fill-opacity="1" stroke="#000000" stroke-opacity="1" stroke-width="3.2"/>
<circle clip-path="url(#clip272)" cx="2293.23" cy="1386.4" r="14.4" fill="#009af9" fill-rule="evenodd" fill-opacity="1" stroke="#000000" stroke-opacity="1" stroke-width="3.2"/>
<path clip-path="url(#clip270)" d="M1821.36 270.476 L2282.65 270.476 L2282.65 166.796 L1821.36 166.796  Z" fill="#ffffff" fill-rule="evenodd" fill-opacity="1"/>
<polyline clip-path="url(#clip270)" style="stroke:#000000; stroke-linecap:round; stroke-linejoin:round; stroke-width:4; stroke-opacity:1; fill:none" points="1821.36,270.476 2282.65,270.476 2282.65,166.796 1821.36,166.796 1821.36,270.476 "/>
<polyline clip-path="url(#clip270)" style="stroke:#009af9; stroke-linecap:round; stroke-linejoin:round; stroke-width:8; stroke-opacity:1; fill:none" points="1844.73,218.636 1984.94,218.636 "/>
<circle clip-path="url(#clip270)" cx="1914.83" cy="218.636" r="19.4742" fill="#009af9" fill-rule="evenodd" fill-opacity="1" stroke="#000000" stroke-opacity="1" stroke-width="4.55111"/>
<path clip-path="url(#clip270)" d="M2024.7 219.712 Q2026.2 220.221 2027.61 221.888 Q2029.05 223.555 2030.48 226.471 L2035.23 235.916 L2030.21 235.916 L2025.79 227.05 Q2024.07 223.578 2022.45 222.444 Q2020.86 221.309 2018.08 221.309 L2012.98 221.309 L2012.98 235.916 L2008.31 235.916 L2008.31 201.356 L2018.86 201.356 Q2024.79 201.356 2027.71 203.833 Q2030.62 206.309 2030.62 211.309 Q2030.62 214.573 2029.1 216.726 Q2027.59 218.879 2024.7 219.712 M2012.98 205.198 L2012.98 217.467 L2018.86 217.467 Q2022.24 217.467 2023.96 215.916 Q2025.69 214.342 2025.69 211.309 Q2025.69 208.277 2023.96 206.749 Q2022.24 205.198 2018.86 205.198 L2012.98 205.198 Z" fill="#000000" fill-rule="nonzero" fill-opacity="1" /><path clip-path="url(#clip270)" d="M2061.11 221.888 L2061.11 223.971 L2041.53 223.971 Q2041.8 228.369 2044.17 230.684 Q2046.55 232.976 2050.79 232.976 Q2053.24 232.976 2055.53 232.374 Q2057.85 231.772 2060.11 230.569 L2060.11 234.596 Q2057.82 235.568 2055.42 236.078 Q2053.01 236.587 2050.53 236.587 Q2044.33 236.587 2040.69 232.976 Q2037.08 229.365 2037.08 223.207 Q2037.08 216.842 2040.51 213.115 Q2043.96 209.365 2049.79 209.365 Q2055.02 209.365 2058.05 212.745 Q2061.11 216.101 2061.11 221.888 M2056.85 220.638 Q2056.8 217.143 2054.88 215.059 Q2052.98 212.976 2049.84 212.976 Q2046.27 212.976 2044.12 214.99 Q2041.99 217.004 2041.67 220.661 L2056.85 220.638 Z" fill="#000000" fill-rule="nonzero" fill-opacity="1" /><path clip-path="url(#clip270)" d="M2070.65 222.976 Q2070.65 227.675 2072.57 230.36 Q2074.51 233.022 2077.89 233.022 Q2081.27 233.022 2083.22 230.36 Q2085.16 227.675 2085.16 222.976 Q2085.16 218.277 2083.22 215.615 Q2081.27 212.93 2077.89 212.93 Q2074.51 212.93 2072.57 215.615 Q2070.65 218.277 2070.65 222.976 M2085.16 232.027 Q2083.82 234.342 2081.76 235.476 Q2079.72 236.587 2076.85 236.587 Q2072.15 236.587 2069.19 232.837 Q2066.25 229.087 2066.25 222.976 Q2066.25 216.865 2069.19 213.115 Q2072.15 209.365 2076.85 209.365 Q2079.72 209.365 2081.76 210.499 Q2083.82 211.61 2085.16 213.925 L2085.16 209.99 L2089.42 209.99 L2089.42 245.777 L2085.16 245.777 L2085.16 232.027 Z" fill="#000000" fill-rule="nonzero" fill-opacity="1" /><path clip-path="url(#clip270)" d="M2097.75 225.684 L2097.75 209.99 L2102.01 209.99 L2102.01 225.522 Q2102.01 229.203 2103.45 231.055 Q2104.88 232.883 2107.75 232.883 Q2111.2 232.883 2113.19 230.684 Q2115.21 228.485 2115.21 224.689 L2115.21 209.99 L2119.47 209.99 L2119.47 235.916 L2115.21 235.916 L2115.21 231.934 Q2113.66 234.295 2111.6 235.453 Q2109.56 236.587 2106.85 236.587 Q2102.38 236.587 2100.07 233.809 Q2097.75 231.031 2097.75 225.684 M2108.47 209.365 L2108.47 209.365 Z" fill="#000000" fill-rule="nonzero" fill-opacity="1" /><path clip-path="url(#clip270)" d="M2150.41 221.888 L2150.41 223.971 L2130.83 223.971 Q2131.11 228.369 2133.47 230.684 Q2135.85 232.976 2140.09 232.976 Q2142.54 232.976 2144.84 232.374 Q2147.15 231.772 2149.42 230.569 L2149.42 234.596 Q2147.13 235.568 2144.72 236.078 Q2142.31 236.587 2139.84 236.587 Q2133.63 236.587 2130 232.976 Q2126.39 229.365 2126.39 223.207 Q2126.39 216.842 2129.81 213.115 Q2133.26 209.365 2139.1 209.365 Q2144.33 209.365 2147.36 212.745 Q2150.41 216.101 2150.41 221.888 M2146.16 220.638 Q2146.11 217.143 2144.19 215.059 Q2142.29 212.976 2139.14 212.976 Q2135.58 212.976 2133.42 214.99 Q2131.29 217.004 2130.97 220.661 L2146.16 220.638 Z" fill="#000000" fill-rule="nonzero" fill-opacity="1" /><path clip-path="url(#clip270)" d="M2173.93 210.754 L2173.93 214.782 Q2172.13 213.856 2170.18 213.393 Q2168.24 212.93 2166.16 212.93 Q2162.98 212.93 2161.39 213.902 Q2159.81 214.874 2159.81 216.819 Q2159.81 218.3 2160.95 219.157 Q2162.08 219.99 2165.51 220.754 L2166.97 221.078 Q2171.5 222.05 2173.4 223.832 Q2175.32 225.592 2175.32 228.763 Q2175.32 232.374 2172.45 234.481 Q2169.6 236.587 2164.6 236.587 Q2162.52 236.587 2160.25 236.17 Q2158.01 235.777 2155.51 234.967 L2155.51 230.569 Q2157.87 231.795 2160.16 232.42 Q2162.45 233.022 2164.7 233.022 Q2167.71 233.022 2169.33 232.004 Q2170.95 230.962 2170.95 229.087 Q2170.95 227.351 2169.77 226.425 Q2168.61 225.499 2164.65 224.643 L2163.17 224.295 Q2159.21 223.462 2157.45 221.749 Q2155.69 220.013 2155.69 217.004 Q2155.69 213.346 2158.28 211.356 Q2160.88 209.365 2165.65 209.365 Q2168.01 209.365 2170.09 209.712 Q2172.17 210.059 2173.93 210.754 Z" fill="#000000" fill-rule="nonzero" fill-opacity="1" /><path clip-path="url(#clip270)" d="M2186.32 202.629 L2186.32 209.99 L2195.09 209.99 L2195.09 213.3 L2186.32 213.3 L2186.32 227.374 Q2186.32 230.545 2187.17 231.448 Q2188.05 232.351 2190.72 232.351 L2195.09 232.351 L2195.09 235.916 L2190.72 235.916 Q2185.78 235.916 2183.91 234.087 Q2182.03 232.235 2182.03 227.374 L2182.03 213.3 L2178.91 213.3 L2178.91 209.99 L2182.03 209.99 L2182.03 202.629 L2186.32 202.629 Z" fill="#000000" fill-rule="nonzero" fill-opacity="1" /><path clip-path="url(#clip270)" d="M2217.22 210.754 L2217.22 214.782 Q2215.41 213.856 2213.47 213.393 Q2211.53 212.93 2209.44 212.93 Q2206.27 212.93 2204.67 213.902 Q2203.1 214.874 2203.1 216.819 Q2203.1 218.3 2204.23 219.157 Q2205.37 219.99 2208.79 220.754 L2210.25 221.078 Q2214.79 222.05 2216.69 223.832 Q2218.61 225.592 2218.61 228.763 Q2218.61 232.374 2215.74 234.481 Q2212.89 236.587 2207.89 236.587 Q2205.81 236.587 2203.54 236.17 Q2201.29 235.777 2198.79 234.967 L2198.79 230.569 Q2201.16 231.795 2203.45 232.42 Q2205.74 233.022 2207.98 233.022 Q2210.99 233.022 2212.61 232.004 Q2214.23 230.962 2214.23 229.087 Q2214.23 227.351 2213.05 226.425 Q2211.9 225.499 2207.94 224.643 L2206.46 224.295 Q2202.5 223.462 2200.74 221.749 Q2198.98 220.013 2198.98 217.004 Q2198.98 213.346 2201.57 211.356 Q2204.16 209.365 2208.93 209.365 Q2211.29 209.365 2213.38 209.712 Q2215.46 210.059 2217.22 210.754 Z" fill="#000000" fill-rule="nonzero" fill-opacity="1" /><path clip-path="url(#clip270)" d="M2232.96 201.356 L2236.9 201.356 L2224.86 240.314 L2220.92 240.314 L2232.96 201.356 Z" fill="#000000" fill-rule="nonzero" fill-opacity="1" /><path clip-path="url(#clip270)" d="M2257.89 210.754 L2257.89 214.782 Q2256.09 213.856 2254.14 213.393 Q2252.2 212.93 2250.11 212.93 Q2246.94 212.93 2245.34 213.902 Q2243.77 214.874 2243.77 216.819 Q2243.77 218.3 2244.9 219.157 Q2246.04 219.99 2249.46 220.754 L2250.92 221.078 Q2255.46 222.05 2257.36 223.832 Q2259.28 225.592 2259.28 228.763 Q2259.28 232.374 2256.41 234.481 Q2253.56 236.587 2248.56 236.587 Q2246.48 236.587 2244.21 236.17 Q2241.97 235.777 2239.47 234.967 L2239.47 230.569 Q2241.83 231.795 2244.12 232.42 Q2246.41 233.022 2248.65 233.022 Q2251.66 233.022 2253.28 232.004 Q2254.9 230.962 2254.9 229.087 Q2254.9 227.351 2253.72 226.425 Q2252.57 225.499 2248.61 224.643 L2247.13 224.295 Q2243.17 223.462 2241.41 221.749 Q2239.65 220.013 2239.65 217.004 Q2239.65 213.346 2242.24 211.356 Q2244.84 209.365 2249.6 209.365 Q2251.96 209.365 2254.05 209.712 Q2256.13 210.059 2257.89 210.754 Z" fill="#000000" fill-rule="nonzero" fill-opacity="1" /></svg>
